<svg width="129" height="27" viewBox="0 0 129 27" fill="none" xmlns="http://www.w3.org/2000/svg">
<g clip-path="url(#clip0_824_3578)">
<path d="M99.3711 2.80011e-05H116.071C118.061 0.0278617 119.087 1.04379 119.091 3.01535C119.091 9.65524 119.091 16.292 119.091 22.9257C119.091 23.1855 119.091 23.4453 119.091 23.7051C119.093 24.3249 118.874 24.925 118.472 25.3971C118.071 25.8693 117.514 26.1823 116.902 26.2797C116.501 26.3499 116.094 26.381 115.686 26.3725H82.991C82.5836 26.3798 82.1766 26.3472 81.7756 26.2751C81.2032 26.1808 80.6802 25.894 80.293 25.4621C79.9059 25.0302 79.6777 24.4791 79.6463 23.8999C79.6231 23.6077 79.6231 23.3108 79.6231 23.0139V3.21482C79.6231 3.02926 79.6231 2.84371 79.6231 2.65815C79.6183 1.98095 79.8736 1.32774 80.3362 0.833179C80.7988 0.338617 81.4336 0.0404063 82.1096 2.80011e-05C82.439 -0.0324447 82.7776 2.80011e-05 83.1116 2.80011e-05H99.3711ZM82.3694 14.0097C82.3694 14.4736 82.3694 14.9003 82.3694 15.3457C82.4065 16.0415 82.0586 16.9415 82.5132 17.3775C83.0467 17.8925 83.9884 17.5074 84.7538 17.577C85.2873 17.628 85.4682 17.3915 85.4543 16.8719C85.4264 15.9859 85.4543 15.0952 85.4543 14.2045C85.4543 13.3138 85.4543 13.3324 86.2986 13.3185C87.0362 13.3185 87.7784 13.3185 88.5206 13.3185C89.3019 13.3382 90.0792 13.2026 90.8076 12.9195C92.4266 12.2329 93.4889 11.0639 93.6235 9.25474C93.6951 8.49106 93.5455 7.7229 93.1927 7.04186C92.8398 6.36082 92.2985 5.79563 91.6334 5.41369C90.8215 4.88962 89.8717 4.61986 88.9057 4.63898C87.3099 4.63898 85.7187 4.63898 84.1229 4.63898C82.0725 4.66681 82.3972 4.2957 82.374 6.38323C82.374 7.22752 82.374 7.24143 83.2369 7.25071C84.7909 7.25071 86.345 7.25071 87.9036 7.25071C88.0863 7.22211 88.2729 7.23254 88.4512 7.28131C88.6295 7.33009 88.7955 7.4161 88.9381 7.53369C89.3046 7.90016 89.6943 8.24345 90.07 8.60065C90.1999 8.7259 90.3948 8.91146 90.2185 9.06454C89.4948 9.69544 89.0495 10.7021 87.8201 10.6418C86.3774 10.5722 84.9301 10.6418 83.4874 10.6418C82.2209 10.6418 82.374 10.6418 82.3694 11.8108C82.3647 12.5252 82.3694 13.2767 82.3694 14.0143V14.0097ZM104.636 12.6922C104.636 11.3005 104.636 9.94594 104.636 8.57745C104.636 8.33159 104.711 7.96975 104.363 7.94192C103.555 7.88625 102.642 7.64966 101.969 8.04397C101.797 8.14981 101.598 8.20584 101.396 8.20584C101.194 8.20584 100.995 8.14981 100.823 8.04397C100.151 7.7708 99.4289 7.64399 98.7042 7.67199C97.9795 7.69998 97.269 7.88215 96.6202 8.20634C93.4657 9.8578 93.0993 14.738 95.9615 16.858C97.5016 18.0038 99.1717 18.0548 100.916 17.3915C101.148 17.2987 101.459 16.9972 101.612 17.1688C102.298 17.9249 103.152 17.41 103.908 17.5538C104.516 17.6652 104.66 17.3312 104.65 16.7838C104.632 15.4385 104.65 14.0653 104.65 12.6968L104.636 12.6922ZM110.936 13.5922C110.696 13.2312 110.517 12.8331 110.407 12.4139C109.943 11.1335 109.479 9.84389 108.969 8.56353C108.853 8.25272 108.77 7.90944 108.329 7.90944H105.722C105.912 8.42437 106.033 8.77229 106.186 9.10629C107.23 11.6809 108.283 14.2555 109.322 16.8301C109.665 17.693 109.503 18.2218 108.723 18.6857C108.477 18.8435 108.181 18.913 107.921 19.0522C107.559 19.2378 107.025 18.9594 106.793 19.3537C106.562 19.7481 106.733 20.2259 106.71 20.6666C106.71 20.7779 106.71 20.8892 106.71 21.0006C106.738 21.8031 106.761 21.8217 107.522 21.7799C109.651 21.6639 111.163 20.6666 111.98 18.6672C113.353 15.3086 114.729 11.95 116.108 8.59137C116.192 8.39653 116.34 8.19242 116.062 7.89089C115.445 7.89089 114.745 7.92336 114.049 7.89089C113.501 7.85841 113.265 8.10428 113.089 8.58673C112.578 9.97842 112.031 11.3701 111.479 12.7293C111.335 13.0262 111.335 13.388 110.95 13.5968L110.936 13.5922Z" fill="#4B4D9B"/>
<path d="M0 25.9133C0.783983 24.1459 1.47519 22.564 2.18495 20.9868C4.99615 14.7335 7.82127 8.48943 10.6 2.22684C10.6811 1.95063 10.86 1.71345 11.1034 1.55973C11.3468 1.40602 11.6379 1.34632 11.9221 1.39183C12.9587 1.45678 13.9983 1.45678 15.0348 1.39183C15.7724 1.31761 15.9905 1.71192 16.2363 2.25004C17.7455 5.67359 19.2671 9.09868 20.8011 12.5253C22.6876 16.756 24.5772 20.9837 26.4699 25.2082C26.5441 25.3752 26.6044 25.5515 26.6601 25.6953C26.5163 25.9922 26.2704 25.9319 26.0616 25.9319C24.5029 25.9319 22.9443 25.9319 21.3902 25.9319C21.1536 25.9693 20.9115 25.9187 20.7098 25.7896C20.508 25.6605 20.3606 25.4619 20.2954 25.2314C19.9382 24.3036 19.5022 23.399 19.1264 22.4712C19.0665 22.2615 18.9346 22.0796 18.7539 21.9574C18.5732 21.8353 18.3553 21.7807 18.1383 21.8032C14.9838 21.8032 11.8324 21.8032 8.68412 21.8032C8.46669 21.7823 8.24885 21.8387 8.06895 21.9626C7.88905 22.0865 7.75863 22.2699 7.70066 22.4805C7.31563 23.4408 6.86565 24.3778 6.4667 25.3381C6.42727 25.5172 6.32524 25.6763 6.17898 25.7868C6.03272 25.8974 5.85181 25.9521 5.6688 25.9412C3.85497 25.8994 2.04114 25.9133 0 25.9133ZM16.6492 16.7514L13.453 9.36619C12.3118 11.9315 11.2912 14.2788 10.2057 16.7514H16.6492Z" fill="#4B4D9C"/>
<path d="M36.0029 26.3771C34.5264 26.3841 33.0596 26.1394 31.6654 25.6534C29.7727 24.8926 28.4182 23.6448 27.8337 21.6268C27.6667 21.0377 27.6342 20.8196 28.3579 20.7547C29.5733 20.648 30.784 20.4717 31.9948 20.2908C32.2207 20.216 32.4663 20.2278 32.6839 20.3238C32.9016 20.4198 33.076 20.5932 33.1731 20.8104C33.337 21.0825 33.5586 21.3154 33.8223 21.4925C34.086 21.6696 34.3854 21.7867 34.6993 21.8356C35.7068 22.1109 36.7741 22.0753 37.761 21.7335C37.9791 21.6764 38.174 21.5528 38.3186 21.3799C38.4633 21.207 38.5505 20.9933 38.5682 20.7686C38.5703 20.5628 38.5109 20.361 38.3977 20.1892C38.2845 20.0173 38.1226 19.8831 37.9327 19.8037C37.5427 19.5936 37.126 19.4376 36.6941 19.3398C35.3735 18.978 34.0529 18.6115 32.7324 18.2404C31.8386 17.9878 30.9834 17.6148 30.1902 17.1317C27.0126 15.1787 27.8337 10.2799 30.0464 8.81402C32.0458 7.5012 34.2215 7.21358 36.541 7.27853C38.1819 7.2629 39.7963 7.69256 41.2124 8.52177C42.3325 9.19829 43.1597 10.2687 43.5319 11.5232C43.736 12.1819 43.6757 12.284 42.9752 12.3907C41.6949 12.5901 40.4099 12.7525 39.1341 12.9659C38.9777 13.0051 38.8127 12.9914 38.6649 12.9267C38.5171 12.8621 38.395 12.7502 38.3177 12.6087C37.5105 11.5278 35.2235 11.1289 34.0591 11.8201C33.9233 11.8815 33.806 11.9774 33.7187 12.0983C33.6315 12.2192 33.5775 12.3608 33.562 12.5091C33.5465 12.6574 33.5701 12.8071 33.6305 12.9434C33.6909 13.0797 33.7859 13.1978 33.906 13.286C34.2231 13.5453 34.5939 13.7307 34.9916 13.8287C36.1931 14.2045 37.3992 14.5663 38.6007 14.9421C39.7739 15.2923 40.8931 15.8028 41.9268 16.459C44.8354 18.361 44.52 22.9535 42.0242 24.6978C41.1149 25.3418 40.0893 25.8034 39.0043 26.057C38.0158 26.2563 37.0111 26.3635 36.0029 26.3771Z" fill="#4C4E9C"/>
<path d="M46.3431 16.7003C46.3431 13.9957 46.3431 11.2866 46.3431 8.58208C46.3431 7.71924 46.3431 7.70996 47.1967 7.70068C48.5327 7.70068 49.8641 7.70068 51.2001 7.70068C51.9795 7.70068 51.998 7.72852 52.0026 8.52178C52.0026 11.6716 52.0026 14.8215 52.0026 17.976C52.0026 20.3465 52.0026 22.7216 52.0026 25.0921C52.0026 25.89 52.0026 25.9039 51.2047 25.9132C49.8718 25.9132 48.5374 25.9132 47.2013 25.9132C46.3617 25.9132 46.3431 25.9132 46.3431 25.0411C46.3385 22.267 46.3431 19.4836 46.3431 16.7003Z" fill="#4E509D"/>
<path d="M45.6843 3.24718C45.6843 1.36377 47.1224 -8.24623e-05 49.1357 -8.24623e-05C49.5812 -0.0206092 50.0263 0.0472957 50.4454 0.199713C50.8645 0.35213 51.2493 0.586041 51.5775 0.887945C51.9057 1.18985 52.1709 1.55377 52.3577 1.9587C52.5445 2.36363 52.6493 2.80155 52.6659 3.24718C52.6659 5.03318 51.1026 6.49445 49.1682 6.49445C47.2337 6.49445 45.689 5.10277 45.6843 3.24718Z" fill="#4D4F9D"/>
<path d="M125.632 16.5146C124.752 16.5061 123.912 16.1493 123.295 15.5225C122.677 14.8956 122.333 14.0497 122.338 13.17C122.338 12.7349 122.424 12.3041 122.591 11.9026C122.759 11.5011 123.004 11.1369 123.314 10.8313C123.623 10.5256 123.991 10.2846 124.394 10.1222C124.798 9.95987 125.23 9.87943 125.665 9.88558C126.54 9.9032 127.376 10.2577 127.997 10.8755C128.618 11.4932 128.977 12.3266 129 13.2024C128.963 14.0785 128.594 14.9077 127.969 15.5225C127.344 16.1373 126.509 16.4919 125.632 16.5146Z" fill="#4D4F9D"/>
<path d="M82.3692 14.0143C82.3692 13.2767 82.3692 12.5345 82.3692 11.7922C82.3692 10.6279 82.2208 10.6232 83.4872 10.6232C84.9299 10.6232 86.3773 10.5722 87.82 10.6232C89.0493 10.6835 89.4947 9.69543 90.2183 9.04598C90.3946 8.89289 90.2183 8.70733 90.0699 8.58208C89.6941 8.22488 89.3045 7.8816 88.938 7.51512C88.7953 7.39754 88.6294 7.31153 88.4511 7.26275C88.2728 7.21397 88.0862 7.20354 87.9035 7.23215C86.3448 7.23215 84.7908 7.23215 83.2367 7.23215C82.3878 7.23215 82.3646 7.23215 82.3739 6.36466C82.3971 4.27713 82.0723 4.64825 84.1228 4.62042C85.7186 4.59722 87.3097 4.62042 88.9055 4.62042C89.8735 4.60681 90.8235 4.88307 91.6332 5.41368C92.3022 5.79729 92.8461 6.36618 93.1992 7.05179C93.5523 7.73741 93.6996 8.5105 93.6233 9.27793C93.4888 11.0825 92.4265 12.2561 90.8075 12.9427C90.0791 13.2258 89.3017 13.3614 88.5205 13.3416C87.7783 13.3416 87.036 13.3416 86.2984 13.3416C85.4727 13.3416 85.4634 13.3648 85.4541 14.2277C85.4449 15.0905 85.431 16.009 85.4541 16.8951C85.4541 17.4146 85.2871 17.6512 84.7537 17.6002C83.9882 17.5306 83.0465 17.9157 82.513 17.4007C82.0491 16.9647 82.4063 16.0647 82.3692 15.3689C82.3507 14.905 82.3692 14.4596 82.3692 14.0143Z" fill="#FBFAFD"/>
<path d="M104.65 12.6969C104.65 14.0654 104.65 15.4385 104.65 16.807C104.65 17.3544 104.516 17.6884 103.908 17.577C103.152 17.4332 102.298 17.9482 101.612 17.192C101.458 17.0204 101.148 17.3219 100.916 17.4147C99.1715 18.0781 97.5014 18.027 95.9613 16.8812C93.0991 14.7612 93.4656 9.88103 96.62 8.22956C97.2688 7.90537 97.9793 7.72321 98.704 7.69521C99.4287 7.66721 100.151 7.79403 100.823 8.06719C100.995 8.17304 101.194 8.22907 101.396 8.22907C101.598 8.22907 101.796 8.17304 101.969 8.06719C102.641 7.67288 103.555 7.90947 104.362 7.96514C104.71 7.99297 104.636 8.35481 104.636 8.60067C104.655 9.95061 104.65 11.3237 104.65 12.6969ZM99.4127 10.4377C99.1067 10.4327 98.8028 10.4893 98.5192 10.604C98.2355 10.7188 97.9778 10.8895 97.7614 11.1059C97.545 11.3223 97.3743 11.58 97.2596 11.8636C97.1448 12.1473 97.0882 12.4512 97.0932 12.7572C97.0608 13.0797 97.0964 13.4054 97.1977 13.7133C97.2989 14.0212 97.4636 14.3045 97.681 14.5449C97.8985 14.7853 98.1639 14.9774 98.4602 15.1089C98.7564 15.2404 99.077 15.3083 99.4011 15.3083C99.7252 15.3083 100.046 15.2404 100.342 15.1089C100.638 14.9774 100.904 14.7853 101.121 14.5449C101.339 14.3045 101.503 14.0212 101.605 13.7133C101.706 13.4054 101.741 13.0797 101.709 12.7572C101.718 12.452 101.666 12.148 101.554 11.8638C101.442 11.5797 101.274 11.3212 101.059 11.1042C100.844 10.8872 100.587 10.7162 100.304 10.6016C100.021 10.487 99.718 10.4313 99.4127 10.4377Z" fill="#FBFBFE"/>
<path d="M110.95 13.5968C111.316 13.388 111.339 13.0262 111.455 12.7293C112.007 11.3376 112.555 9.97839 113.065 8.58671C113.241 8.12281 113.478 7.85839 114.025 7.89086C114.721 7.93725 115.417 7.89086 116.039 7.89086C116.317 8.1924 116.169 8.39651 116.085 8.59135C114.712 11.9499 113.336 15.3086 111.956 18.6672C111.14 20.6665 109.637 21.6639 107.498 21.7799C106.738 21.8216 106.714 21.8031 106.687 21.0005C106.687 20.8892 106.687 20.7779 106.687 20.6665C106.687 20.2258 106.547 19.7387 106.77 19.3537C106.993 18.9687 107.536 19.2377 107.897 19.0522C108.157 18.913 108.454 18.8434 108.7 18.6857C109.479 18.1893 109.628 17.6791 109.298 16.8301C108.259 14.2555 107.206 11.6809 106.162 9.10627C106.028 8.77226 105.907 8.42434 105.698 7.90942H108.306C108.746 7.90942 108.83 8.2527 108.946 8.56351C109.41 9.84386 109.901 11.1335 110.393 12.4138C110.511 12.8364 110.7 13.2363 110.95 13.5968Z" fill="#F9F9FD"/>
<path d="M16.6493 16.7512H10.2058C11.2774 14.2786 12.298 11.9313 13.416 9.36597L16.6493 16.7512Z" fill="#F9F9FD"/>
<path d="M68.7261 24.9343C68.2951 25.055 67.8852 25.2412 67.5107 25.4864C64.0454 26.943 60.7471 26.6971 57.7689 24.3081C55.5051 22.4803 54.4753 19.9753 54.4057 17.0852C54.3315 13.94 55.3335 11.2216 57.8571 9.24075C60.8492 6.88416 64.1428 6.6986 67.5989 8.17379C67.97 8.33616 68.2715 8.63769 68.6983 8.67016C69.0045 7.70526 69.0045 7.70526 70.0389 7.70062C71.1894 7.70062 72.3584 7.70062 73.4903 7.70062C74.4506 7.70062 74.4599 7.70062 74.4599 8.68408C74.4599 13.8797 74.4599 19.0722 74.4599 24.2617C74.4599 24.6328 74.4599 25.0039 74.4599 25.375C74.4599 25.7461 74.3021 25.9131 73.9264 25.9085C72.4419 25.9085 70.9575 25.8714 69.4776 25.9085C68.689 25.9781 69.0045 25.2451 68.7261 24.9343ZM68.8189 16.7976C68.8232 15.6657 68.3777 14.5785 67.5804 13.775C66.783 12.9716 65.6992 12.5178 64.5673 12.5135C63.4354 12.5092 62.3482 12.9547 61.5447 13.7521C60.7413 14.5494 60.2875 15.6332 60.2832 16.7651C60.2832 19.2655 62.0368 21.1072 64.4583 21.1304C65.0339 21.1503 65.6075 21.052 66.1437 20.8416C66.6799 20.6313 67.1674 20.3133 67.5759 19.9074C67.9845 19.5014 68.3056 19.016 68.5194 18.4812C68.7332 17.9463 68.8351 17.3734 68.8189 16.7976Z" fill="#4B4D9C"/>
<path d="M99.4129 10.4376C99.7181 10.4281 100.022 10.4808 100.306 10.5926C100.59 10.7043 100.849 10.8727 101.066 11.0875C101.283 11.3024 101.454 11.5591 101.568 11.8422C101.683 12.1252 101.739 12.4286 101.732 12.7339C101.765 13.0564 101.729 13.3821 101.628 13.69C101.527 13.998 101.362 14.2812 101.145 14.5216C100.927 14.762 100.662 14.9541 100.365 15.0856C100.069 15.2171 99.7486 15.285 99.4245 15.285C99.1003 15.285 98.7798 15.2171 98.4835 15.0856C98.1873 14.9541 97.9218 14.762 97.7044 14.5216C97.4869 14.2812 97.3223 13.998 97.221 13.69C97.1198 13.3821 97.0842 13.0564 97.1166 12.7339C97.1147 12.4318 97.1729 12.1324 97.2876 11.853C97.4024 11.5735 97.5714 11.3197 97.785 11.1061C97.9986 10.8925 98.2525 10.7234 98.5319 10.6086C98.8114 10.4939 99.1108 10.4358 99.4129 10.4376Z" fill="#4E509D"/>
</g>
<defs>
<clipPath id="clip0_824_3578">
<rect width="129" height="26.391" fill="white"/>
</clipPath>
</defs>
</svg>
