<svg width="14" height="7" viewBox="0 0 14 7" fill="none" xmlns="http://www.w3.org/2000/svg">
<path d="M13.0293 1.79886C13.4704 1.46665 13.5588 0.83968 13.2266 0.398482C12.8944 -0.0427155 12.2674 -0.131069 11.8262 0.20114L13.0293 1.79886ZM6.71345 5.30269L6.11193 6.10155C6.4681 6.36974 6.95879 6.36974 7.31497 6.10155L6.71345 5.30269ZM1.60068 0.20114C1.15948 -0.131069 0.532512 -0.0427159 0.200303 0.398482C-0.131906 0.83968 -0.0435534 1.46665 0.397645 1.79886L1.60068 0.20114ZM11.8262 0.20114L6.11193 4.50383L7.31497 6.10155L13.0293 1.79886L11.8262 0.20114ZM7.31497 4.50383L1.60068 0.20114L0.397645 1.79886L6.11193 6.10155L7.31497 4.50383Z" fill="#22262C"/>
</svg>
