<svg width="440" height="246" viewBox="0 0 440 246" fill="none" xmlns="http://www.w3.org/2000/svg">
<rect width="440" height="245.644" rx="20.2454" fill="url(#paint0_linear_832_14894)"/>
<mask id="mask0_832_14894" style="mask-type:alpha" maskUnits="userSpaceOnUse" x="0" y="0" width="440" height="246">
<rect width="440" height="245.644" rx="20.2454" fill="url(#paint1_linear_832_14894)"/>
</mask>
<g mask="url(#mask0_832_14894)">
<path d="M327.453 108.437C361.132 98.0409 350.646 101.744 375.94 92.5415C386.171 88.8168 389.094 88.028 398.674 84.7086C420.117 77.3139 424.555 75.342 439.575 67.0929C446.819 63.1162 450.244 60.1583 452.292 55.1518C454.948 48.6993 453.359 42.3016 446.115 26.0662C428.235 -13.887 432.15 -5.24341 417.311 -31.919C415.359 -35.4465 412.67 -40.2667 406.515 -43.6738C400.583 -46.9603 392.486 -47.2451 386.533 -43.6738C381.733 -40.7926 379.716 -36.071 378.906 -34.7235C352.897 8.51615 330.973 48.7651 309.904 92.0814C308.368 95.2474 304.474 103.212 307.365 106.619C309.797 109.445 322.033 110.091 327.453 108.437Z" fill="url(#paint2_linear_832_14894)"/>
<path d="M216.09 270.772C218.881 276.643 224.122 279.332 226.853 280.692C232.777 283.628 243.631 288.066 263.119 283.474C277.246 280.15 286.302 276.643 301.573 268.686C308.331 265.158 320.65 255.391 336.574 244.663C353.703 233.147 355.942 231.583 368.402 225.334C379.777 219.627 388.302 215.26 398.643 215.107C422.378 214.647 437.429 232.922 440.14 230.079C442.62 227.471 428.915 211.057 414.507 192.996C400.23 175.109 384.757 160.362 359.135 152.784C344.08 147.876 328.246 145.929 312.477 147.046C299.023 148.069 285.469 150.002 272.697 161.835C269.314 164.974 265.227 167.643 254.283 183.311C233.179 213.522 226.371 228.064 225.367 230.038C221.351 237.739 215.98 246.637 214.554 258.756C214.002 263.388 214.403 267.285 216.09 270.772Z" fill="url(#paint3_linear_832_14894)"/>
<path opacity="0.37" d="M275.917 159.029C275.917 159.029 288.846 158.343 303.197 156.697C310.969 155.817 334.323 153.137 352.269 165.053C377.186 181.571 376.305 217.87 392.048 215.814C396.025 215.214 400.055 215.059 404.065 215.354C406.559 215.6 413.91 216.305 424.866 222.452C433.569 227.331 438.776 232.783 441.02 229.397C445.767 222.238 432.137 216.622 421.481 203.009C414.331 193.875 399.509 171.159 370.636 158.006C356.736 151.685 344.027 151.869 341.704 151.45C329.625 149.313 317.268 149.431 305.23 151.797C289.617 155.04 275.917 159.029 275.917 159.029Z" fill="#493F92"/>
</g>
<path d="M29.0071 158.538C27.6523 158.538 26.4445 158.289 25.3836 157.791C24.3292 157.292 23.492 156.605 22.8721 155.73C22.2523 154.854 21.9295 153.851 21.904 152.72H25.93C25.9748 153.48 26.2943 154.097 26.8886 154.57C27.483 155.043 28.1891 155.279 29.0071 155.279C29.6589 155.279 30.2341 155.135 30.7326 154.848C31.2374 154.554 31.6304 154.148 31.9116 153.63C32.1992 153.106 32.343 152.506 32.343 151.828C32.343 151.138 32.196 150.531 31.902 150.007C31.6145 149.483 31.2151 149.074 30.7038 148.78C30.1926 148.486 29.6078 148.336 28.9496 148.329C28.3744 148.329 27.8153 148.448 27.2721 148.684C26.7353 148.92 26.3167 149.243 26.0163 149.652L22.3257 148.991L23.2556 138.638H35.2571V142.031H26.6777L26.1697 146.949H26.2847C26.6298 146.463 27.1506 146.061 27.8472 145.741C28.5438 145.422 29.3234 145.262 30.1862 145.262C31.3684 145.262 32.4229 145.54 33.3495 146.096C34.2762 146.652 35.0079 147.415 35.5447 148.387C36.0815 149.352 36.3467 150.464 36.3403 151.723C36.3467 153.046 36.04 154.221 35.4201 155.25C34.8066 156.273 33.947 157.078 32.8415 157.666C31.7423 158.248 30.4642 158.538 29.0071 158.538ZM46.9327 158.701C45.2839 158.695 43.8652 158.289 42.6766 157.484C41.4943 156.679 40.5837 155.512 39.9446 153.985C39.3119 152.458 38.9988 150.62 39.0052 148.473C39.0052 146.332 39.3215 144.508 39.9542 143C40.5933 141.491 41.5039 140.344 42.6862 139.558C43.8748 138.766 45.2903 138.37 46.9327 138.37C48.5751 138.37 49.9874 138.766 51.1697 139.558C52.3583 140.351 53.2722 141.501 53.9113 143.009C54.5503 144.511 54.8666 146.332 54.8603 148.473C54.8603 150.627 54.5407 152.467 53.9017 153.995C53.269 155.522 52.3615 156.688 51.1793 157.493C49.997 158.299 48.5815 158.701 46.9327 158.701ZM46.9327 155.26C48.0575 155.26 48.9553 154.694 49.6264 153.563C50.2974 152.432 50.6297 150.735 50.6233 148.473C50.6233 146.984 50.4699 145.744 50.1632 144.754C49.8628 143.763 49.4346 143.019 48.8787 142.52C48.3291 142.022 47.6804 141.773 46.9327 141.773C45.8144 141.773 44.9197 142.332 44.2487 143.45C43.5777 144.568 43.239 146.243 43.2326 148.473C43.2326 149.981 43.3827 151.24 43.6831 152.25C43.9899 153.253 44.4212 154.007 44.9772 154.512C45.5332 155.011 46.185 155.26 46.9327 155.26ZM65.5174 158.701C63.8686 158.695 62.4499 158.289 61.2612 157.484C60.079 156.679 59.1683 155.512 58.5293 153.985C57.8966 152.458 57.5834 150.62 57.5898 148.473C57.5898 146.332 57.9062 144.508 58.5388 143C59.1779 141.491 60.0886 140.344 61.2708 139.558C62.4595 138.766 63.875 138.37 65.5174 138.37C67.1597 138.37 68.5721 138.766 69.7543 139.558C70.943 140.351 71.8568 141.501 72.4959 143.009C73.135 144.511 73.4513 146.332 73.4449 148.473C73.4449 150.627 73.1254 152.467 72.4863 153.995C71.8536 155.522 70.9462 156.688 69.7639 157.493C68.5817 158.299 67.1661 158.701 65.5174 158.701ZM65.5174 155.26C66.6421 155.26 67.54 154.694 68.211 153.563C68.882 152.432 69.2143 150.735 69.2079 148.473C69.2079 146.984 69.0546 145.744 68.7478 144.754C68.4475 143.763 68.0193 143.019 67.4633 142.52C66.9137 142.022 66.2651 141.773 65.5174 141.773C64.399 141.773 63.5043 142.332 62.8333 143.45C62.1623 144.568 61.8236 146.243 61.8172 148.473C61.8172 149.981 61.9674 151.24 62.2677 152.25C62.5745 153.253 63.0059 154.007 63.5618 154.512C64.1178 155.011 64.7697 155.26 65.5174 155.26ZM90.3496 158.701C88.7008 158.695 87.2821 158.289 86.0935 157.484C84.9112 156.679 84.0006 155.512 83.3615 153.985C82.7288 152.458 82.4157 150.62 82.4221 148.473C82.4221 146.332 82.7384 144.508 83.3711 143C84.0101 141.491 84.9208 140.344 86.1031 139.558C87.2917 138.766 88.7072 138.37 90.3496 138.37C91.992 138.37 93.4043 138.766 94.5866 139.558C95.7752 140.351 96.6891 141.501 97.3281 143.009C97.9672 144.511 98.2835 146.332 98.2771 148.473C98.2771 150.627 97.9576 152.467 97.3186 153.995C96.6859 155.522 95.7784 156.688 94.5962 157.493C93.4139 158.299 91.9984 158.701 90.3496 158.701ZM90.3496 155.26C91.4744 155.26 92.3722 154.694 93.0432 153.563C93.7143 152.432 94.0466 150.735 94.0402 148.473C94.0402 146.984 93.8868 145.744 93.5801 144.754C93.2797 143.763 92.8515 143.019 92.2955 142.52C91.746 142.022 91.0973 141.773 90.3496 141.773C89.2313 141.773 88.3366 142.332 87.6656 143.45C86.9946 144.568 86.6559 146.243 86.6495 148.473C86.6495 149.981 86.7996 151.24 87.1 152.25C87.4067 153.253 87.8381 154.007 88.3941 154.512C88.9501 155.011 89.6019 155.26 90.3496 155.26ZM108.934 158.701C107.285 158.695 105.867 158.289 104.678 157.484C103.496 156.679 102.585 155.512 101.946 153.985C101.313 152.458 101 150.62 101.007 148.473C101.007 146.332 101.323 144.508 101.956 143C102.595 141.491 103.505 140.344 104.688 139.558C105.876 138.766 107.292 138.37 108.934 138.37C110.577 138.37 111.989 138.766 113.171 139.558C114.36 140.351 115.274 141.501 115.913 143.009C116.552 144.511 116.868 146.332 116.862 148.473C116.862 150.627 116.542 152.467 115.903 153.995C115.271 155.522 114.363 156.688 113.181 157.493C111.999 158.299 110.583 158.701 108.934 158.701ZM108.934 155.26C110.059 155.26 110.957 154.694 111.628 153.563C112.299 152.432 112.631 150.735 112.625 148.473C112.625 146.984 112.471 145.744 112.165 144.754C111.864 143.763 111.436 143.019 110.88 142.52C110.331 142.022 109.682 141.773 108.934 141.773C107.816 141.773 106.921 142.332 106.25 143.45C105.579 144.568 105.24 146.243 105.234 148.473C105.234 149.981 105.384 151.24 105.685 152.25C105.991 153.253 106.423 154.007 106.979 154.512C107.535 155.011 108.187 155.26 108.934 155.26ZM127.519 158.701C125.87 158.695 124.451 158.289 123.263 157.484C122.081 156.679 121.17 155.512 120.531 153.985C119.898 152.458 119.585 150.62 119.591 148.473C119.591 146.332 119.908 144.508 120.54 143C121.179 141.491 122.09 140.344 123.272 139.558C124.461 138.766 125.877 138.37 127.519 138.37C129.161 138.37 130.574 138.766 131.756 139.558C132.945 140.351 133.858 141.501 134.497 143.009C135.136 144.511 135.453 146.332 135.446 148.473C135.446 150.627 135.127 152.467 134.488 153.995C133.855 155.522 132.948 156.688 131.765 157.493C130.583 158.299 129.168 158.701 127.519 158.701ZM127.519 155.26C128.644 155.26 129.542 154.694 130.213 153.563C130.884 152.432 131.216 150.735 131.209 148.473C131.209 146.984 131.056 145.744 130.749 144.754C130.449 143.763 130.021 143.019 129.465 142.52C128.915 142.022 128.267 141.773 127.519 141.773C126.401 141.773 125.506 142.332 124.835 143.45C124.164 144.568 123.825 146.243 123.819 148.473C123.819 149.981 123.969 151.24 124.269 152.25C124.576 153.253 125.007 154.007 125.563 154.512C126.119 155.011 126.771 155.26 127.519 155.26ZM156.895 138.638H161.046V151.387C161.046 152.819 160.704 154.071 160.02 155.145C159.342 156.219 158.393 157.056 157.173 157.656C155.952 158.251 154.53 158.548 152.907 158.548C151.278 158.548 149.852 158.251 148.632 157.656C147.411 157.056 146.462 156.219 145.785 155.145C145.107 154.071 144.769 152.819 144.769 151.387V138.638H148.919V151.033C148.919 151.78 149.082 152.445 149.408 153.026C149.741 153.608 150.207 154.065 150.808 154.397C151.409 154.73 152.108 154.896 152.907 154.896C153.712 154.896 154.412 154.73 155.006 154.397C155.607 154.065 156.07 153.608 156.396 153.026C156.729 152.445 156.895 151.78 156.895 151.033V138.638ZM164.25 158.27V155.806L174.046 142.06H164.23V138.638H179.261V141.102L169.455 154.848H179.28V158.27H164.25ZM193.115 144.284C193.038 143.511 192.709 142.91 192.128 142.482C191.546 142.054 190.757 141.84 189.76 141.84C189.083 141.84 188.511 141.936 188.044 142.127C187.578 142.313 187.22 142.571 186.971 142.904C186.728 143.236 186.606 143.613 186.606 144.035C186.594 144.386 186.667 144.693 186.827 144.955C186.993 145.217 187.22 145.444 187.507 145.636C187.795 145.821 188.127 145.984 188.504 146.125C188.881 146.259 189.284 146.374 189.712 146.47L191.476 146.891C192.332 147.083 193.118 147.339 193.834 147.658C194.55 147.978 195.17 148.371 195.694 148.837C196.218 149.304 196.624 149.853 196.911 150.486C197.205 151.119 197.355 151.844 197.362 152.662C197.355 153.864 197.049 154.905 196.441 155.787C195.841 156.663 194.972 157.343 193.834 157.829C192.703 158.308 191.339 158.548 189.741 158.548C188.156 158.548 186.776 158.305 185.6 157.819C184.43 157.334 183.516 156.615 182.858 155.663C182.206 154.704 181.865 153.518 181.833 152.106H185.849C185.894 152.764 186.082 153.314 186.415 153.755C186.753 154.19 187.204 154.519 187.766 154.742C188.335 154.96 188.977 155.068 189.693 155.068C190.396 155.068 191.006 154.966 191.524 154.761C192.048 154.557 192.454 154.273 192.741 153.908C193.029 153.544 193.173 153.125 193.173 152.653C193.173 152.212 193.042 151.841 192.78 151.541C192.524 151.24 192.147 150.985 191.649 150.774C191.156 150.563 190.553 150.371 189.837 150.199L187.699 149.662C186.044 149.259 184.737 148.63 183.778 147.773C182.82 146.917 182.344 145.764 182.35 144.313C182.344 143.124 182.66 142.086 183.299 141.197C183.945 140.309 184.83 139.616 185.954 139.117C187.079 138.619 188.357 138.37 189.789 138.37C191.246 138.37 192.518 138.619 193.604 139.117C194.697 139.616 195.547 140.309 196.154 141.197C196.761 142.086 197.074 143.115 197.093 144.284H193.115Z" fill="white"/>
<path d="M25.3356 46.2455H20.8877L27.665 26.6136H33.0139L39.7815 46.2455H35.3337L30.4161 31.0998H30.2627L25.3356 46.2455ZM25.0576 38.5288H35.5637V41.7689H25.0576V38.5288ZM53.9758 35.7202L50.2373 35.9502C50.1734 35.6307 50.036 35.3431 49.8251 35.0875C49.6143 34.8255 49.3363 34.6178 48.9912 34.4644C48.6525 34.3047 48.2467 34.2248 47.7738 34.2248C47.1411 34.2248 46.6075 34.359 46.1729 34.6274C45.7384 34.8894 45.5211 35.2409 45.5211 35.6818C45.5211 36.0333 45.6617 36.3305 45.9429 36.5733C46.224 36.8162 46.7065 37.0111 47.3903 37.1581L50.0552 37.6949C51.4867 37.9888 52.5539 38.4617 53.2569 39.1136C53.9599 39.7654 54.3113 40.6218 54.3113 41.6826C54.3113 42.6476 54.027 43.4943 53.4582 44.2229C52.8958 44.9514 52.1226 45.5202 51.1384 45.9291C50.1606 46.3318 49.0327 46.5331 47.7546 46.5331C45.8055 46.5331 44.2525 46.1273 43.0958 45.3157C41.9455 44.4977 41.2713 43.3857 41.0732 41.9798L45.0897 41.7689C45.2111 42.3632 45.5051 42.8169 45.9716 43.1301C46.4381 43.4368 47.0356 43.5902 47.7642 43.5902C48.4799 43.5902 49.0551 43.4528 49.4896 43.178C49.9306 42.8968 50.1543 42.5357 50.1606 42.0948C50.1543 41.7241 49.9977 41.4206 49.6909 41.1841C49.3842 40.9413 48.9113 40.756 48.2722 40.6282L45.7224 40.1201C44.2845 39.8325 43.2141 39.3341 42.5111 38.6247C41.8145 37.9153 41.4662 37.0111 41.4662 35.9119C41.4662 34.9661 41.7219 34.1513 42.2331 33.4675C42.7508 32.7837 43.4761 32.2565 44.4091 31.8858C45.3485 31.5152 46.4477 31.3298 47.7067 31.3298C49.5663 31.3298 51.0298 31.7229 52.097 32.5089C53.1706 33.2949 53.7969 34.3654 53.9758 35.7202ZM56.8828 46.2455V31.5216H60.9663V46.2455H56.8828ZM58.9341 29.6235C58.327 29.6235 57.8062 29.4222 57.3716 29.0196C56.9435 28.6106 56.7294 28.1218 56.7294 27.553C56.7294 26.9906 56.9435 26.5081 57.3716 26.1055C57.8062 25.6965 58.327 25.492 58.9341 25.492C59.5412 25.492 60.0589 25.6965 60.487 26.1055C60.9216 26.5081 61.1389 26.9906 61.1389 27.553C61.1389 28.1218 60.9216 28.6106 60.487 29.0196C60.0589 29.4222 59.5412 29.6235 58.9341 29.6235ZM68.4361 46.5235C67.4967 46.5235 66.6596 46.3605 65.9246 46.0346C65.1897 45.7023 64.6082 45.2134 64.18 44.568C63.7582 43.9161 63.5473 43.1045 63.5473 42.1331C63.5473 41.3151 63.6975 40.6282 63.9979 40.0722C64.2982 39.5162 64.7072 39.0688 65.2249 38.7301C65.7425 38.3914 66.3304 38.1358 66.9887 37.9633C67.6533 37.7907 68.3499 37.6693 69.0784 37.599C69.9347 37.5095 70.6249 37.4265 71.149 37.3498C71.673 37.2667 72.0532 37.1453 72.2897 36.9855C72.5261 36.8257 72.6444 36.5893 72.6444 36.2762V36.2186C72.6444 35.6115 72.4526 35.1418 72.0692 34.8095C71.6922 34.4772 71.1553 34.311 70.4588 34.311C69.7239 34.311 69.1391 34.474 68.7046 34.7999C68.27 35.1195 67.9824 35.5221 67.8418 36.0078L64.065 35.701C64.2567 34.8063 64.6337 34.0331 65.1961 33.3812C65.7585 32.723 66.4838 32.2181 67.3721 31.8666C68.2668 31.5088 69.3021 31.3298 70.4779 31.3298C71.2959 31.3298 72.0788 31.4257 72.8265 31.6174C73.5806 31.8091 74.2484 32.1063 74.8299 32.5089C75.4179 32.9115 75.8812 33.4291 76.2199 34.0618C76.5586 34.6881 76.7279 35.439 76.7279 36.3145V46.2455H72.8552V44.2037H72.7402C72.5038 44.6638 72.1874 45.0696 71.7912 45.4211C71.395 45.7662 70.9189 46.0378 70.3629 46.2359C69.8069 46.4276 69.1647 46.5235 68.4361 46.5235ZM69.6056 43.7052C70.2063 43.7052 70.7368 43.587 71.1969 43.3505C71.657 43.1077 72.0181 42.7818 72.2801 42.3728C72.5421 41.9638 72.6731 41.5005 72.6731 40.9828V39.4203C72.5453 39.5034 72.3696 39.5801 72.1459 39.6504C71.9286 39.7143 71.6826 39.775 71.4078 39.8325C71.133 39.8836 70.8582 39.9316 70.5834 39.9763C70.3086 40.0147 70.0594 40.0498 69.8357 40.0818C69.3564 40.1521 68.9378 40.2639 68.5799 40.4173C68.2221 40.5706 67.9441 40.7783 67.746 41.0403C67.5479 41.296 67.4488 41.6155 67.4488 41.9989C67.4488 42.5549 67.6501 42.9799 68.0527 43.2739C68.4617 43.5614 68.9793 43.7052 69.6056 43.7052ZM79.8961 51.767V31.5216H83.9222V33.9947H84.1043C84.2832 33.5985 84.542 33.1959 84.8807 32.7869C85.2258 32.3715 85.6732 32.0264 86.2228 31.7516C86.7787 31.4704 87.4689 31.3298 88.2933 31.3298C89.3669 31.3298 90.3575 31.611 91.2649 32.1734C92.1724 32.7294 92.8977 33.5697 93.4409 34.6945C93.9841 35.8128 94.2557 37.2156 94.2557 38.9027C94.2557 40.5451 93.9905 41.9318 93.4601 43.063C92.9361 44.1877 92.2203 45.0409 91.3129 45.6224C90.4118 46.1976 89.4021 46.4851 88.2837 46.4851C87.4913 46.4851 86.8171 46.3541 86.2611 46.0921C85.7115 45.8301 85.261 45.501 84.9095 45.1048C84.558 44.7022 84.2896 44.2964 84.1043 43.8874H83.9797V51.767H79.8961ZM83.8934 38.8835C83.8934 39.759 84.0148 40.5227 84.2577 41.1745C84.5005 41.8264 84.852 42.3344 85.3121 42.6987C85.7722 43.0566 86.3314 43.2355 86.9896 43.2355C87.6543 43.2355 88.2166 43.0534 88.6768 42.6891C89.1369 42.3185 89.4852 41.8072 89.7216 41.1554C89.9645 40.4971 90.0859 39.7399 90.0859 38.8835C90.0859 38.0336 89.9677 37.2859 89.7312 36.6404C89.4948 35.995 89.1465 35.4901 88.6863 35.1259C88.2262 34.7616 87.6607 34.5795 86.9896 34.5795C86.325 34.5795 85.7626 34.7552 85.3025 35.1067C84.8488 35.4582 84.5005 35.9566 84.2577 36.6021C84.0148 37.2475 83.8934 38.008 83.8934 38.8835ZM101.177 46.5235C100.237 46.5235 99.4002 46.3605 98.6653 46.0346C97.9303 45.7023 97.3488 45.2134 96.9206 44.568C96.4988 43.9161 96.288 43.1045 96.288 42.1331C96.288 41.3151 96.4381 40.6282 96.7385 40.0722C97.0388 39.5162 97.4478 39.0688 97.9655 38.7301C98.4831 38.3914 99.0711 38.1358 99.7293 37.9633C100.394 37.7907 101.09 37.6693 101.819 37.599C102.675 37.5095 103.366 37.4265 103.89 37.3498C104.414 37.2667 104.794 37.1453 105.03 36.9855C105.267 36.8257 105.385 36.5893 105.385 36.2762V36.2186C105.385 35.6115 105.193 35.1418 104.81 34.8095C104.433 34.4772 103.896 34.311 103.199 34.311C102.464 34.311 101.88 34.474 101.445 34.7999C101.011 35.1195 100.723 35.5221 100.582 36.0078L96.8056 35.701C96.9973 34.8063 97.3744 34.0331 97.9367 33.3812C98.4991 32.723 99.2244 32.2181 100.113 31.8666C101.007 31.5088 102.043 31.3298 103.219 31.3298C104.037 31.3298 104.819 31.4257 105.567 31.6174C106.321 31.8091 106.989 32.1063 107.571 32.5089C108.158 32.9115 108.622 33.4291 108.96 34.0618C109.299 34.6881 109.469 35.439 109.469 36.3145V46.2455H105.596V44.2037H105.481C105.244 44.6638 104.928 45.0696 104.532 45.4211C104.136 45.7662 103.66 46.0378 103.104 46.2359C102.548 46.4276 101.905 46.5235 101.177 46.5235ZM102.346 43.7052C102.947 43.7052 103.477 43.587 103.937 43.3505C104.398 43.1077 104.759 42.7818 105.021 42.3728C105.283 41.9638 105.414 41.5005 105.414 40.9828V39.4203C105.286 39.5034 105.11 39.5801 104.886 39.6504C104.669 39.7143 104.423 39.775 104.148 39.8325C103.874 39.8836 103.599 39.9316 103.324 39.9763C103.049 40.0147 102.8 40.0498 102.576 40.0818C102.097 40.1521 101.678 40.2639 101.321 40.4173C100.963 40.5706 100.685 40.7783 100.487 41.0403C100.288 41.296 100.189 41.6155 100.189 41.9989C100.189 42.5549 100.391 42.9799 100.793 43.2739C101.202 43.5614 101.72 43.7052 102.346 43.7052ZM114.631 51.767C114.113 51.767 113.627 51.7254 113.173 51.6423C112.726 51.5657 112.355 51.4666 112.062 51.3452L112.982 48.2969C113.461 48.4438 113.892 48.5237 114.276 48.5365C114.666 48.5493 115.001 48.4598 115.282 48.2681C115.57 48.0764 115.803 47.7505 115.982 47.2903L116.222 46.6673L110.94 31.5216H115.234L118.283 42.3344H118.436L121.513 31.5216H125.836L120.114 47.8367C119.839 48.6292 119.465 49.3194 118.992 49.9073C118.526 50.5016 117.934 50.9585 117.219 51.2781C116.503 51.604 115.64 51.767 114.631 51.767ZM140.826 46.5331C139.318 46.5331 138.021 46.2135 136.935 45.5745C135.855 44.929 135.024 44.0343 134.442 42.8904C133.867 41.7465 133.579 40.43 133.579 38.941C133.579 37.4329 133.87 36.11 134.452 34.9725C135.04 33.8286 135.874 32.9371 136.954 32.298C138.034 31.6526 139.318 31.3298 140.807 31.3298C142.092 31.3298 143.216 31.5631 144.181 32.0296C145.146 32.4961 145.91 33.1512 146.472 33.9947C147.035 34.8383 147.345 35.8288 147.402 36.9663H143.549C143.44 36.2314 143.153 35.6403 142.686 35.193C142.226 34.7392 141.622 34.5124 140.874 34.5124C140.242 34.5124 139.689 34.6849 139.216 35.03C138.749 35.3687 138.385 35.864 138.123 36.5158C137.861 37.1676 137.73 37.9569 137.73 38.8835C137.73 39.8229 137.858 40.6218 138.114 41.28C138.376 41.9382 138.743 42.4399 139.216 42.785C139.689 43.1301 140.242 43.3026 140.874 43.3026C141.341 43.3026 141.759 43.2068 142.13 43.015C142.507 42.8233 142.817 42.5453 143.06 42.1811C143.309 41.8104 143.472 41.3663 143.549 40.8486H147.402C147.338 41.9734 147.032 42.9639 146.482 43.8203C145.939 44.6702 145.188 45.3348 144.229 45.8141C143.271 46.2934 142.136 46.5331 140.826 46.5331ZM154.215 46.5235C153.276 46.5235 152.439 46.3605 151.704 46.0346C150.969 45.7023 150.388 45.2134 149.959 44.568C149.538 43.9161 149.327 43.1045 149.327 42.1331C149.327 41.3151 149.477 40.6282 149.777 40.0722C150.078 39.5162 150.487 39.0688 151.004 38.7301C151.522 38.3914 152.11 38.1358 152.768 37.9633C153.433 37.7907 154.129 37.6693 154.858 37.599C155.714 37.5095 156.404 37.4265 156.928 37.3498C157.452 37.2667 157.833 37.1453 158.069 36.9855C158.305 36.8257 158.424 36.5893 158.424 36.2762V36.2186C158.424 35.6115 158.232 35.1418 157.849 34.8095C157.471 34.4772 156.935 34.311 156.238 34.311C155.503 34.311 154.918 34.474 154.484 34.7999C154.049 35.1195 153.762 35.5221 153.621 36.0078L149.844 35.701C150.036 34.8063 150.413 34.0331 150.975 33.3812C151.538 32.723 152.263 32.2181 153.151 31.8666C154.046 31.5088 155.081 31.3298 156.257 31.3298C157.075 31.3298 157.858 31.4257 158.606 31.6174C159.36 31.8091 160.028 32.1063 160.609 32.5089C161.197 32.9115 161.661 33.4291 161.999 34.0618C162.338 34.6881 162.507 35.439 162.507 36.3145V46.2455H158.635V44.2037H158.52C158.283 44.6638 157.967 45.0696 157.571 45.4211C157.174 45.7662 156.698 46.0378 156.142 46.2359C155.586 46.4276 154.944 46.5235 154.215 46.5235ZM155.385 43.7052C155.986 43.7052 156.516 43.587 156.976 43.3505C157.436 43.1077 157.797 42.7818 158.059 42.3728C158.321 41.9638 158.452 41.5005 158.452 40.9828V39.4203C158.325 39.5034 158.149 39.5801 157.925 39.6504C157.708 39.7143 157.462 39.775 157.187 39.8325C156.912 39.8836 156.638 39.9316 156.363 39.9763C156.088 40.0147 155.839 40.0498 155.615 40.0818C155.136 40.1521 154.717 40.2639 154.359 40.4173C154.001 40.5706 153.723 40.7783 153.525 41.0403C153.327 41.296 153.228 41.6155 153.228 41.9989C153.228 42.5549 153.429 42.9799 153.832 43.2739C154.241 43.5614 154.759 43.7052 155.385 43.7052ZM165.675 46.2455V31.5216H169.634V34.0906H169.788C170.056 33.1767 170.507 32.4865 171.139 32.02C171.772 31.5471 172.501 31.3107 173.325 31.3107C173.529 31.3107 173.75 31.3234 173.986 31.349C174.223 31.3746 174.431 31.4097 174.609 31.4545V35.0779C174.418 35.0204 174.153 34.9693 173.814 34.9245C173.475 34.8798 173.165 34.8574 172.884 34.8574C172.283 34.8574 171.746 34.9885 171.274 35.2505C170.807 35.5061 170.436 35.864 170.162 36.3241C169.893 36.7842 169.759 37.3146 169.759 37.9153V46.2455H165.675ZM181.461 46.4851C180.343 46.4851 179.33 46.1976 178.422 45.6224C177.521 45.0409 176.805 44.1877 176.275 43.063C175.751 41.9318 175.489 40.5451 175.489 38.9027C175.489 37.2156 175.761 35.8128 176.304 34.6945C176.847 33.5697 177.569 32.7294 178.47 32.1734C179.378 31.611 180.371 31.3298 181.451 31.3298C182.276 31.3298 182.963 31.4704 183.512 31.7516C184.068 32.0264 184.516 32.3715 184.854 32.7869C185.199 33.1959 185.461 33.5985 185.64 33.9947H185.765V26.6136H189.839V46.2455H185.813V43.8874H185.64C185.449 44.2964 185.177 44.7022 184.826 45.1048C184.481 45.501 184.03 45.8301 183.474 46.0921C182.924 46.3541 182.253 46.4851 181.461 46.4851ZM182.755 43.2355C183.413 43.2355 183.969 43.0566 184.423 42.6987C184.883 42.3344 185.235 41.8264 185.477 41.1745C185.727 40.5227 185.851 39.759 185.851 38.8835C185.851 38.008 185.73 37.2475 185.487 36.6021C185.244 35.9566 184.893 35.4582 184.433 35.1067C183.972 34.7552 183.413 34.5795 182.755 34.5795C182.084 34.5795 181.518 34.7616 181.058 35.1259C180.598 35.4901 180.25 35.995 180.014 36.6404C179.777 37.2859 179.659 38.0336 179.659 38.8835C179.659 39.7399 179.777 40.4971 180.014 41.1554C180.256 41.8072 180.605 42.3185 181.058 42.6891C181.518 43.0534 182.084 43.2355 182.755 43.2355Z" fill="white"/>
<path d="M26.902 114.344C25.8489 114.344 24.9184 114.157 24.1106 113.784C23.308 113.405 22.6817 112.887 22.2318 112.227C21.7819 111.562 21.5595 110.806 21.5646 109.957C21.5595 109.293 21.6899 108.679 21.9557 108.117C22.2216 107.549 22.5846 107.076 23.0447 106.698C23.5099 106.314 24.0288 106.072 24.6014 105.969V105.877C23.8499 105.683 23.2517 105.261 22.807 104.612C22.3622 103.958 22.1423 103.214 22.1474 102.38C22.1423 101.583 22.3443 100.87 22.7533 100.241C23.1623 99.612 23.7246 99.1161 24.4404 98.7531C25.1612 98.3902 25.9818 98.2087 26.902 98.2087C27.8121 98.2087 28.625 98.3902 29.3407 98.7531C30.0564 99.1161 30.6188 99.612 31.0278 100.241C31.4419 100.87 31.6515 101.583 31.6566 102.38C31.6515 103.214 31.424 103.958 30.9741 104.612C30.5293 105.261 29.9389 105.683 29.2027 105.877V105.969C29.7701 106.072 30.2814 106.314 30.7364 106.698C31.1914 107.076 31.5544 107.549 31.8254 108.117C32.0963 108.679 32.2344 109.293 32.2395 109.957C32.2344 110.806 32.0043 111.562 31.5493 112.227C31.0994 112.887 30.4731 113.405 29.6705 113.784C28.8729 114.157 27.9501 114.344 26.902 114.344ZM26.902 112.657C27.6127 112.657 28.2262 112.541 28.7425 112.311C29.2589 112.081 29.6577 111.757 29.9389 111.337C30.22 110.918 30.3632 110.427 30.3683 109.865C30.3632 109.272 30.2098 108.748 29.9082 108.293C29.6065 107.838 29.195 107.48 28.6735 107.219C28.1572 106.959 27.5667 106.828 26.902 106.828C26.2323 106.828 25.6342 106.959 25.1076 107.219C24.5861 107.48 24.1745 107.838 23.8729 108.293C23.5764 108.748 23.4307 109.272 23.4358 109.865C23.4307 110.427 23.5662 110.918 23.8422 111.337C24.1234 111.757 24.5247 112.081 25.0462 112.311C25.5677 112.541 26.1863 112.657 26.902 112.657ZM26.902 105.203C27.4644 105.203 27.9629 105.09 28.3974 104.865C28.8371 104.64 29.1822 104.326 29.4327 103.922C29.6832 103.518 29.811 103.045 29.8162 102.503C29.811 101.971 29.6858 101.509 29.4404 101.115C29.195 100.716 28.855 100.41 28.4205 100.195C27.9859 99.975 27.4798 99.8651 26.902 99.8651C26.3141 99.8651 25.8003 99.975 25.3606 100.195C24.921 100.41 24.581 100.716 24.3407 101.115C24.1004 101.509 23.9828 101.971 23.9879 102.503C23.9828 103.045 24.103 103.518 24.3484 103.922C24.5989 104.326 24.944 104.64 25.3836 104.865C25.8233 105.09 26.3295 105.203 26.902 105.203ZM40.3932 114.344C39.7491 114.333 39.1049 114.211 38.4607 113.976C37.8165 113.74 37.2286 113.344 36.6969 112.787C36.1652 112.225 35.7383 111.465 35.4162 110.509C35.0941 109.548 34.9331 108.342 34.9331 106.89C34.9331 105.499 35.0635 104.267 35.3242 103.193C35.5849 102.115 35.9633 101.207 36.4592 100.471C36.9551 99.7296 37.5532 99.1672 38.2537 98.7838C38.9592 98.4004 39.7542 98.2087 40.6386 98.2087C41.518 98.2087 42.3002 98.385 42.9853 98.7378C43.6754 99.0854 44.2378 99.5711 44.6724 100.195C45.1069 100.819 45.3881 101.537 45.5159 102.35H43.6448C43.4709 101.644 43.1335 101.059 42.6325 100.594C42.1315 100.128 41.4668 99.8958 40.6386 99.8958C39.4219 99.8958 38.4633 100.425 37.7629 101.483C37.0676 102.541 36.7174 104.027 36.7122 105.939H36.8349C37.1212 105.504 37.4612 105.134 37.8549 104.827C38.2537 104.515 38.6933 104.275 39.1739 104.106C39.6545 103.937 40.1632 103.853 40.7 103.853C41.5998 103.853 42.4229 104.078 43.1693 104.528C43.9157 104.972 44.5139 105.589 44.9638 106.376C45.4137 107.158 45.6386 108.055 45.6386 109.068C45.6386 110.039 45.4213 110.928 44.9868 111.736C44.5522 112.539 43.9413 113.178 43.154 113.653C42.3718 114.124 41.4515 114.354 40.3932 114.344ZM40.3932 112.657C41.0374 112.657 41.6151 112.495 42.1264 112.173C42.6427 111.851 43.0492 111.419 43.3457 110.877C43.6473 110.335 43.7981 109.732 43.7981 109.068C43.7981 108.418 43.6524 107.828 43.361 107.296C43.0747 106.759 42.6785 106.332 42.1724 106.015C41.6713 105.698 41.0988 105.54 40.4546 105.54C39.9689 105.54 39.5164 105.637 39.0972 105.831C38.678 106.021 38.3099 106.281 37.9929 106.614C37.6811 106.946 37.4357 107.327 37.2567 107.756C37.0778 108.181 36.9883 108.628 36.9883 109.098C36.9883 109.722 37.134 110.305 37.4254 110.847C37.722 111.389 38.1258 111.826 38.6371 112.158C39.1535 112.49 39.7388 112.657 40.3932 112.657ZM53.7771 114.344C52.6216 114.344 51.6375 114.029 50.8246 113.4C50.0117 112.766 49.3905 111.849 48.9611 110.647C48.5317 109.441 48.3169 107.984 48.3169 106.276C48.3169 104.579 48.5317 103.129 48.9611 101.928C49.3957 100.721 50.0194 99.8012 50.8323 99.1672C51.6503 98.5282 52.6319 98.2087 53.7771 98.2087C54.9222 98.2087 55.9013 98.5282 56.7142 99.1672C57.5322 99.8012 58.1559 100.721 58.5853 101.928C59.0199 103.129 59.2372 104.579 59.2372 106.276C59.2372 107.984 59.0224 109.441 58.593 110.647C58.1636 111.849 57.5424 112.766 56.7295 113.4C55.9166 114.029 54.9325 114.344 53.7771 114.344ZM53.7771 112.657C54.9222 112.657 55.8118 112.104 56.4458 111C57.0797 109.896 57.3967 108.321 57.3967 106.276C57.3967 104.916 57.251 103.758 56.9596 102.802C56.6733 101.846 56.2592 101.118 55.7172 100.617C55.1804 100.116 54.5337 99.8651 53.7771 99.8651C52.6421 99.8651 51.7551 100.425 51.116 101.545C50.4769 102.659 50.1574 104.236 50.1574 106.276C50.1574 107.636 50.3006 108.791 50.5869 109.742C50.8732 110.693 51.2847 111.417 51.8215 111.913C52.3635 112.409 53.0153 112.657 53.7771 112.657ZM67.274 114.344C66.1186 114.344 65.1344 114.029 64.3215 113.4C63.5086 112.766 62.8875 111.849 62.458 110.647C62.0286 109.441 61.8139 107.984 61.8139 106.276C61.8139 104.579 62.0286 103.129 62.458 101.928C62.8926 100.721 63.5163 99.8012 64.3292 99.1672C65.1472 98.5282 66.1288 98.2087 67.274 98.2087C68.4192 98.2087 69.3982 98.5282 70.2111 99.1672C71.0291 99.8012 71.6528 100.721 72.0823 101.928C72.5168 103.129 72.7341 104.579 72.7341 106.276C72.7341 107.984 72.5194 109.441 72.0899 110.647C71.6605 111.849 71.0393 112.766 70.2264 113.4C69.4136 114.029 68.4294 114.344 67.274 114.344ZM67.274 112.657C68.4192 112.657 69.3087 112.104 69.9427 111C70.5766 109.896 70.8936 108.321 70.8936 106.276C70.8936 104.916 70.7479 103.758 70.4565 102.802C70.1702 101.846 69.7561 101.118 69.2142 100.617C68.6774 100.116 68.0306 99.8651 67.274 99.8651C66.139 99.8651 65.252 100.425 64.6129 101.545C63.9739 102.659 63.6544 104.236 63.6544 106.276C63.6544 107.636 63.7975 108.791 64.0838 109.742C64.3701 110.693 64.7817 111.417 65.3185 111.913C65.8604 112.409 66.5122 112.657 67.274 112.657ZM87.0286 114.344C86.0163 114.344 85.114 114.17 84.3215 113.822C83.5342 113.475 82.9079 112.991 82.4427 112.373C81.9826 111.749 81.7321 111.026 81.6912 110.203H83.6237C83.6646 110.709 83.8384 111.146 84.1451 111.514C84.4519 111.877 84.8532 112.158 85.3491 112.357C85.845 112.557 86.3946 112.657 86.9979 112.657C87.6728 112.657 88.2709 112.539 88.7924 112.304C89.3139 112.069 89.7229 111.741 90.0194 111.322C90.3159 110.903 90.4642 110.417 90.4642 109.865C90.4642 109.287 90.321 108.779 90.0347 108.339C89.7484 107.894 89.3292 107.547 88.7771 107.296C88.2249 107.046 87.5501 106.92 86.7525 106.92H85.4948V105.233H86.7525C87.3762 105.233 87.9233 105.121 88.3936 104.896C88.8691 104.671 89.2397 104.354 89.5056 103.945C89.7765 103.536 89.912 103.055 89.912 102.503C89.912 101.971 89.7944 101.509 89.5593 101.115C89.3241 100.721 88.9918 100.415 88.5623 100.195C88.138 99.975 87.637 99.8651 87.0593 99.8651C86.5173 99.8651 86.0061 99.9648 85.5255 100.164C85.0501 100.358 84.6615 100.642 84.3599 101.015C84.0582 101.384 83.8946 101.828 83.8691 102.35H82.0286C82.0593 101.527 82.3072 100.806 82.7724 100.187C83.2377 99.5635 83.8461 99.0778 84.5976 98.7301C85.3542 98.3825 86.185 98.2087 87.0899 98.2087C88.0613 98.2087 88.8946 98.4055 89.5899 98.7992C90.2852 99.1877 90.8195 99.7015 91.1927 100.341C91.5659 100.98 91.7525 101.67 91.7525 102.411C91.7525 103.296 91.5199 104.05 91.0547 104.673C90.5945 105.297 89.9683 105.729 89.1758 105.969V106.092C90.1676 106.256 90.9422 106.677 91.4994 107.357C92.0567 108.032 92.3353 108.868 92.3353 109.865C92.3353 110.719 92.1027 111.486 91.6375 112.166C91.1774 112.841 90.5485 113.372 89.751 113.761C88.9534 114.149 88.046 114.344 87.0286 114.344ZM100.779 114.344C99.7663 114.344 98.864 114.17 98.0715 113.822C97.2842 113.475 96.6579 112.991 96.1927 112.373C95.7326 111.749 95.4821 111.026 95.4412 110.203H97.3737C97.4146 110.709 97.5884 111.146 97.8951 111.514C98.2019 111.877 98.6032 112.158 99.0991 112.357C99.595 112.557 100.145 112.657 100.748 112.657C101.423 112.657 102.021 112.539 102.542 112.304C103.064 112.069 103.473 111.741 103.769 111.322C104.066 110.903 104.214 110.417 104.214 109.865C104.214 109.287 104.071 108.779 103.785 108.339C103.498 107.894 103.079 107.547 102.527 107.296C101.975 107.046 101.3 106.92 100.503 106.92H99.2448V105.233H100.503C101.126 105.233 101.673 105.121 102.144 104.896C102.619 104.671 102.99 104.354 103.256 103.945C103.527 103.536 103.662 103.055 103.662 102.503C103.662 101.971 103.544 101.509 103.309 101.115C103.074 100.721 102.742 100.415 102.312 100.195C101.888 99.975 101.387 99.8651 100.809 99.8651C100.267 99.8651 99.7561 99.9648 99.2755 100.164C98.8001 100.358 98.4115 100.642 98.1099 101.015C97.8082 101.384 97.6446 101.828 97.6191 102.35H95.7786C95.8093 101.527 96.0572 100.806 96.5224 100.187C96.9877 99.5635 97.5961 99.0778 98.3476 98.7301C99.1042 98.3825 99.935 98.2087 100.84 98.2087C101.811 98.2087 102.645 98.4055 103.34 98.7992C104.035 99.1877 104.569 99.7015 104.943 100.341C105.316 100.98 105.503 101.67 105.503 102.411C105.503 103.296 105.27 104.05 104.805 104.673C104.345 105.297 103.718 105.729 102.926 105.969V106.092C103.918 106.256 104.692 106.677 105.249 107.357C105.807 108.032 106.085 108.868 106.085 109.865C106.085 110.719 105.853 111.486 105.387 112.166C104.927 112.841 104.299 113.372 103.501 113.761C102.703 114.149 101.796 114.344 100.779 114.344ZM109.222 114.129V112.749L114.406 107.074C115.014 106.409 115.515 105.831 115.909 105.341C116.303 104.845 116.594 104.379 116.783 103.945C116.977 103.505 117.075 103.045 117.075 102.564C117.075 102.012 116.942 101.534 116.676 101.13C116.415 100.727 116.057 100.415 115.602 100.195C115.147 99.975 114.636 99.8651 114.068 99.8651C113.465 99.8651 112.939 99.9904 112.489 100.241C112.044 100.486 111.699 100.831 111.453 101.276C111.213 101.721 111.093 102.242 111.093 102.841H109.283C109.283 101.92 109.495 101.113 109.92 100.417C110.344 99.722 110.922 99.18 111.653 98.7915C112.389 98.4029 113.215 98.2087 114.13 98.2087C115.05 98.2087 115.865 98.4029 116.576 98.7915C117.287 99.18 117.844 99.7041 118.248 100.364C118.652 101.023 118.854 101.757 118.854 102.564C118.854 103.142 118.749 103.707 118.539 104.259C118.335 104.806 117.977 105.417 117.466 106.092C116.96 106.762 116.257 107.58 115.357 108.546L111.829 112.319V112.442H119.13V114.129H109.222ZM122.297 114.129V112.749L127.481 107.074C128.089 106.409 128.59 105.831 128.984 105.341C129.378 104.845 129.669 104.379 129.858 103.945C130.053 103.505 130.15 103.045 130.15 102.564C130.15 102.012 130.017 101.534 129.751 101.13C129.49 100.727 129.132 100.415 128.677 100.195C128.222 99.975 127.711 99.8651 127.144 99.8651C126.54 99.8651 126.014 99.9904 125.564 100.241C125.119 100.486 124.774 100.831 124.529 101.276C124.288 101.721 124.168 102.242 124.168 102.841H122.358C122.358 101.92 122.571 101.113 122.995 100.417C123.419 99.722 123.997 99.18 124.728 98.7915C125.464 98.4029 126.29 98.2087 127.205 98.2087C128.125 98.2087 128.941 98.4029 129.651 98.7915C130.362 99.18 130.919 99.7041 131.323 100.364C131.727 101.023 131.929 101.757 131.929 102.564C131.929 103.142 131.824 103.707 131.614 104.259C131.41 104.806 131.052 105.417 130.541 106.092C130.035 106.762 129.332 107.58 128.432 108.546L124.904 112.319V112.442H132.205V114.129H122.297ZM146.354 114.344C145.454 114.344 144.644 114.165 143.923 113.807C143.202 113.449 142.624 112.958 142.19 112.334C141.755 111.711 141.517 111 141.476 110.203H143.317C143.388 110.913 143.711 111.501 144.283 111.966C144.861 112.426 145.551 112.657 146.354 112.657C146.998 112.657 147.571 112.506 148.072 112.204C148.578 111.902 148.974 111.488 149.26 110.962C149.552 110.43 149.697 109.829 149.697 109.16C149.697 108.475 149.546 107.864 149.245 107.327C148.948 106.785 148.539 106.358 148.018 106.046C147.496 105.734 146.901 105.576 146.231 105.571C145.75 105.566 145.257 105.64 144.751 105.793C144.245 105.941 143.828 106.133 143.501 106.368L141.722 106.153L142.673 98.4234H150.832V100.111H144.268L143.716 104.742H143.808C144.13 104.487 144.534 104.275 145.019 104.106C145.505 103.937 146.011 103.853 146.538 103.853C147.499 103.853 148.355 104.083 149.107 104.543C149.863 104.998 150.456 105.622 150.886 106.414C151.321 107.207 151.538 108.112 151.538 109.129C151.538 110.131 151.313 111.026 150.863 111.813C150.418 112.595 149.805 113.214 149.022 113.669C148.24 114.119 147.351 114.344 146.354 114.344ZM159.799 114.344C159.155 114.333 158.511 114.211 157.866 113.976C157.222 113.74 156.634 113.344 156.103 112.787C155.571 112.225 155.144 111.465 154.822 110.509C154.5 109.548 154.339 108.342 154.339 106.89C154.339 105.499 154.469 104.267 154.73 103.193C154.991 102.115 155.369 101.207 155.865 100.471C156.361 99.7296 156.959 99.1672 157.659 98.7838C158.365 98.4004 159.16 98.2087 160.044 98.2087C160.924 98.2087 161.706 98.385 162.391 98.7378C163.081 99.0854 163.643 99.5711 164.078 100.195C164.513 100.819 164.794 101.537 164.922 102.35H163.05C162.877 101.644 162.539 101.059 162.038 100.594C161.537 100.128 160.873 99.8958 160.044 99.8958C158.828 99.8958 157.869 100.425 157.169 101.483C156.473 102.541 156.123 104.027 156.118 105.939H156.241C156.527 105.504 156.867 105.134 157.261 104.827C157.659 104.515 158.099 104.275 158.58 104.106C159.06 103.937 159.569 103.853 160.106 103.853C161.005 103.853 161.829 104.078 162.575 104.528C163.321 104.972 163.92 105.589 164.369 106.376C164.819 107.158 165.044 108.055 165.044 109.068C165.044 110.039 164.827 110.928 164.392 111.736C163.958 112.539 163.347 113.178 162.56 113.653C161.777 114.124 160.857 114.354 159.799 114.344ZM159.799 112.657C160.443 112.657 161.021 112.495 161.532 112.173C162.048 111.851 162.455 111.419 162.751 110.877C163.053 110.335 163.204 109.732 163.204 109.068C163.204 108.418 163.058 107.828 162.767 107.296C162.48 106.759 162.084 106.332 161.578 106.015C161.077 105.698 160.504 105.54 159.86 105.54C159.375 105.54 158.922 105.637 158.503 105.831C158.084 106.021 157.716 106.281 157.399 106.614C157.087 106.946 156.841 107.327 156.662 107.756C156.483 108.181 156.394 108.628 156.394 109.098C156.394 109.722 156.54 110.305 156.831 110.847C157.128 111.389 157.532 111.826 158.043 112.158C158.559 112.49 159.145 112.657 159.799 112.657ZM168.551 114.129L175.575 100.233V100.111H167.477V98.4234H177.539V100.203L170.545 114.129H168.551ZM185.111 114.344C184.058 114.344 183.128 114.157 182.32 113.784C181.517 113.405 180.891 112.887 180.441 112.227C179.991 111.562 179.769 110.806 179.774 109.957C179.769 109.293 179.899 108.679 180.165 108.117C180.431 107.549 180.794 107.076 181.254 106.698C181.719 106.314 182.238 106.072 182.811 105.969V105.877C182.059 105.683 181.461 105.261 181.016 104.612C180.572 103.958 180.352 103.214 180.357 102.38C180.352 101.583 180.554 100.87 180.963 100.241C181.372 99.612 181.934 99.1161 182.65 98.7531C183.371 98.3902 184.191 98.2087 185.111 98.2087C186.021 98.2087 186.834 98.3902 187.55 98.7531C188.266 99.1161 188.828 99.612 189.237 100.241C189.651 100.87 189.861 101.583 189.866 102.38C189.861 103.214 189.633 103.958 189.183 104.612C188.739 105.261 188.148 105.683 187.412 105.877V105.969C187.98 106.072 188.491 106.314 188.946 106.698C189.401 107.076 189.764 107.549 190.035 108.117C190.306 108.679 190.444 109.293 190.449 109.957C190.444 110.806 190.214 111.562 189.759 112.227C189.309 112.887 188.682 113.405 187.88 113.784C187.082 114.157 186.159 114.344 185.111 114.344ZM185.111 112.657C185.822 112.657 186.436 112.541 186.952 112.311C187.468 112.081 187.867 111.757 188.148 111.337C188.429 110.918 188.573 110.427 188.578 109.865C188.573 109.272 188.419 108.748 188.118 108.293C187.816 107.838 187.404 107.48 186.883 107.219C186.367 106.959 185.776 106.828 185.111 106.828C184.442 106.828 183.844 106.959 183.317 107.219C182.795 107.48 182.384 107.838 182.082 108.293C181.786 108.748 181.64 109.272 181.645 109.865C181.64 110.427 181.776 110.918 182.052 111.337C182.333 111.757 182.734 112.081 183.256 112.311C183.777 112.541 184.396 112.657 185.111 112.657ZM185.111 105.203C185.674 105.203 186.172 105.09 186.607 104.865C187.046 104.64 187.392 104.326 187.642 103.922C187.893 103.518 188.02 103.045 188.026 102.503C188.02 101.971 187.895 101.509 187.65 101.115C187.404 100.716 187.064 100.41 186.63 100.195C186.195 99.975 185.689 99.8651 185.111 99.8651C184.523 99.8651 184.01 99.975 183.57 100.195C183.13 100.41 182.79 100.716 182.55 101.115C182.31 101.509 182.192 101.971 182.197 102.503C182.192 103.045 182.312 103.518 182.558 103.922C182.808 104.326 183.153 104.64 183.593 104.865C184.033 105.09 184.539 105.203 185.111 105.203ZM204.676 114.344C204.032 114.333 203.388 114.211 202.744 113.976C202.1 113.74 201.512 113.344 200.98 112.787C200.448 112.225 200.021 111.465 199.699 110.509C199.377 109.548 199.216 108.342 199.216 106.89C199.216 105.499 199.346 104.267 199.607 103.193C199.868 102.115 200.246 101.207 200.742 100.471C201.238 99.7296 201.836 99.1672 202.537 98.7838C203.242 98.4004 204.037 98.2087 204.922 98.2087C205.801 98.2087 206.583 98.385 207.268 98.7378C207.958 99.0854 208.521 99.5711 208.955 100.195C209.39 100.819 209.671 101.537 209.799 102.35H207.928C207.754 101.644 207.417 101.059 206.915 100.594C206.414 100.128 205.75 99.8958 204.922 99.8958C203.705 99.8958 202.746 100.425 202.046 101.483C201.351 102.541 201 104.027 200.995 105.939H201.118C201.404 105.504 201.744 105.134 202.138 104.827C202.537 104.515 202.976 104.275 203.457 104.106C203.937 103.937 204.446 103.853 204.983 103.853C205.883 103.853 206.706 104.078 207.452 104.528C208.199 104.972 208.797 105.589 209.247 106.376C209.697 107.158 209.922 108.055 209.922 109.068C209.922 110.039 209.704 110.928 209.27 111.736C208.835 112.539 208.224 113.178 207.437 113.653C206.655 114.124 205.734 114.354 204.676 114.344ZM204.676 112.657C205.32 112.657 205.898 112.495 206.409 112.173C206.926 111.851 207.332 111.419 207.629 110.877C207.93 110.335 208.081 109.732 208.081 109.068C208.081 108.418 207.935 107.828 207.644 107.296C207.358 106.759 206.961 106.332 206.455 106.015C205.954 105.698 205.382 105.54 204.738 105.54C204.252 105.54 203.799 105.637 203.38 105.831C202.961 106.021 202.593 106.281 202.276 106.614C201.964 106.946 201.719 107.327 201.54 107.756C201.361 108.181 201.271 108.628 201.271 109.098C201.271 109.722 201.417 110.305 201.708 110.847C202.005 111.389 202.409 111.826 202.92 112.158C203.436 112.49 204.022 112.657 204.676 112.657ZM217.845 114.344C216.946 114.344 216.135 114.165 215.414 113.807C214.693 113.449 214.116 112.958 213.681 112.334C213.247 111.711 213.009 111 212.968 110.203H214.809C214.88 110.913 215.202 111.501 215.775 111.966C216.352 112.426 217.043 112.657 217.845 112.657C218.489 112.657 219.062 112.506 219.563 112.204C220.069 111.902 220.465 111.488 220.752 110.962C221.043 110.43 221.189 109.829 221.189 109.16C221.189 108.475 221.038 107.864 220.736 107.327C220.44 106.785 220.031 106.358 219.509 106.046C218.988 105.734 218.392 105.576 217.723 105.571C217.242 105.566 216.749 105.64 216.243 105.793C215.736 105.941 215.32 106.133 214.993 106.368L213.213 106.153L214.164 98.4234H222.324V100.111H215.759L215.207 104.742H215.299C215.621 104.487 216.025 104.275 216.511 104.106C216.997 103.937 217.503 103.853 218.029 103.853C218.991 103.853 219.847 104.083 220.598 104.543C221.355 104.998 221.948 105.622 222.378 106.414C222.812 107.207 223.029 108.112 223.029 109.129C223.029 110.131 222.804 111.026 222.355 111.813C221.91 112.595 221.296 113.214 220.514 113.669C219.732 114.119 218.842 114.344 217.845 114.344ZM231.198 114.344C230.043 114.344 229.059 114.029 228.246 113.4C227.433 112.766 226.812 111.849 226.382 110.647C225.953 109.441 225.738 107.984 225.738 106.276C225.738 104.579 225.953 103.129 226.382 101.928C226.817 100.721 227.441 99.8012 228.254 99.1672C229.072 98.5282 230.053 98.2087 231.198 98.2087C232.344 98.2087 233.323 98.5282 234.136 99.1672C234.954 99.8012 235.577 100.721 236.007 101.928C236.441 103.129 236.659 104.579 236.659 106.276C236.659 107.984 236.444 109.441 236.014 110.647C235.585 111.849 234.964 112.766 234.151 113.4C233.338 114.029 232.354 114.344 231.198 114.344ZM231.198 112.657C232.344 112.657 233.233 112.104 233.867 111C234.501 109.896 234.818 108.321 234.818 106.276C234.818 104.916 234.672 103.758 234.381 102.802C234.095 101.846 233.681 101.118 233.139 100.617C232.602 100.116 231.955 99.8651 231.198 99.8651C230.063 99.8651 229.176 100.425 228.537 101.545C227.898 102.659 227.579 104.236 227.579 106.276C227.579 107.636 227.722 108.791 228.008 109.742C228.295 110.693 228.706 111.417 229.243 111.913C229.785 112.409 230.437 112.657 231.198 112.657ZM245.094 98.4234V114.129H243.192V100.417H243.1L239.266 102.963V101.031L243.192 98.4234H245.094Z" fill="white"/>
<path d="M31.2301 212.57V214.898H25.305V212.57H31.2301ZM21.2119 215.952H24.1039C24.1531 216.739 24.3992 217.332 24.842 217.73C25.2849 218.128 25.9403 218.327 26.8081 218.327C27.5149 218.327 28.0763 218.161 28.4923 217.83C28.9084 217.499 29.2081 217.023 29.3915 216.401C29.5749 215.775 29.6666 215.026 29.6666 214.153V213.039C29.6666 212.14 29.5615 211.382 29.3512 210.765C29.1455 210.143 28.8301 209.673 28.4051 209.356C27.9846 209.038 27.4456 208.879 26.788 208.879C26.1393 208.879 25.6249 208.978 25.2446 209.174C24.8644 209.371 24.5871 209.653 24.4126 210.02C24.2381 210.382 24.1308 210.821 24.0905 211.335H21.1984C21.2879 210.431 21.5474 209.617 21.9768 208.893C22.4107 208.163 23.0258 207.586 23.8221 207.161C24.6228 206.736 25.6115 206.524 26.788 206.524C27.9555 206.524 28.9688 206.79 29.8277 207.322C30.6866 207.855 31.3509 208.608 31.8206 209.584C32.2903 210.559 32.5251 211.713 32.5251 213.046V214.16C32.5251 215.493 32.2948 216.645 31.834 217.616C31.3777 218.582 30.7223 219.329 29.8679 219.857C29.0135 220.38 27.9936 220.642 26.8081 220.642C25.6763 220.642 24.7056 220.445 23.8959 220.051C23.0862 219.653 22.4532 219.103 21.9969 218.401C21.5407 217.694 21.279 216.878 21.2119 215.952ZM34.0131 220.454L33.9997 218.186H34.3419C34.5835 218.186 34.7915 218.128 34.9659 218.012C35.1449 217.891 35.2925 217.696 35.4088 217.428C35.5251 217.159 35.6168 216.804 35.6839 216.361C35.751 215.914 35.7958 215.363 35.8181 214.71L35.9859 210.147H43.8233V220.454H41.099V212.395H38.5559L38.3948 215.542C38.3546 216.406 38.2494 217.148 38.0794 217.77C37.9139 218.392 37.6835 218.902 37.3883 219.3C37.093 219.694 36.7374 219.984 36.3214 220.172C35.9054 220.36 35.4222 220.454 34.872 220.454H34.0131ZM50.7364 220.655C49.6762 220.655 48.7636 220.441 47.9987 220.011C47.2382 219.577 46.6522 218.964 46.2406 218.173C45.8291 217.376 45.6233 216.435 45.6233 215.348C45.6233 214.287 45.8291 213.357 46.2406 212.556C46.6522 211.756 47.2315 211.132 47.9785 210.684C48.7301 210.237 49.6113 210.013 50.6223 210.013C51.3023 210.013 51.9353 210.123 52.5213 210.342C53.1118 210.557 53.6262 210.881 54.0646 211.315C54.5075 211.749 54.8519 212.295 55.098 212.952C55.344 213.605 55.467 214.37 55.467 215.247V216.032H46.764V214.261H52.7763C52.7763 213.849 52.6868 213.485 52.5079 213.167C52.3289 212.849 52.0807 212.601 51.7631 212.422C51.4499 212.239 51.0853 212.147 50.6693 212.147C50.2354 212.147 49.8507 212.248 49.5152 212.449C49.1841 212.646 48.9247 212.912 48.7368 213.247C48.5489 213.578 48.4527 213.948 48.4483 214.355V216.039C48.4483 216.549 48.5422 216.989 48.7301 217.361C48.9224 217.732 49.1931 218.018 49.542 218.22C49.8909 218.421 50.3047 218.522 50.7834 218.522C51.101 218.522 51.3918 218.477 51.6557 218.387C51.9196 218.298 52.1455 218.164 52.3334 217.985C52.5213 217.806 52.6644 217.587 52.7629 217.327L55.4067 217.502C55.2724 218.137 54.9973 218.692 54.5813 219.166C54.1698 219.635 53.6374 220.002 52.9843 220.266C52.3357 220.526 51.5864 220.655 50.7364 220.655ZM57.3325 220.454V210.147H60.191V214.147H60.9962L63.801 210.147H67.1561L63.5125 215.26L67.1963 220.454H63.801L61.2579 216.797H60.191V220.454H57.3325ZM67.8673 212.395V210.147H77.2078V212.395H73.8863V220.454H71.162V212.395H67.8673ZM78.9407 224.319V210.147H81.759V211.879H81.8865C82.0117 211.601 82.1929 211.319 82.43 211.033C82.6716 210.742 82.9847 210.501 83.3694 210.308C83.7586 210.112 84.2417 210.013 84.8188 210.013C85.5703 210.013 86.2637 210.21 86.8989 210.604C87.5342 210.993 88.0419 211.581 88.4221 212.368C88.8024 213.151 88.9925 214.133 88.9925 215.314C88.9925 216.464 88.8068 217.435 88.4356 218.226C88.0687 219.014 87.5677 219.611 86.9325 220.018C86.3017 220.421 85.5949 220.622 84.8121 220.622C84.2574 220.622 83.7854 220.53 83.3962 220.347C83.0115 220.163 82.6962 219.933 82.4501 219.656C82.2041 219.374 82.0162 219.09 81.8865 218.803H81.7992V224.319H78.9407ZM81.7388 215.301C81.7388 215.914 81.8238 216.448 81.9938 216.904C82.1638 217.361 82.4099 217.716 82.7319 217.971C83.054 218.222 83.4455 218.347 83.9062 218.347C84.3715 218.347 84.7651 218.22 85.0872 217.965C85.4093 217.705 85.6531 217.347 85.8186 216.891C85.9886 216.43 86.0736 215.9 86.0736 215.301C86.0736 214.706 85.9908 214.182 85.8253 213.731C85.6598 213.279 85.416 212.925 85.0939 212.67C84.7718 212.415 84.3759 212.288 83.9062 212.288C83.441 212.288 83.0473 212.411 82.7252 212.657C82.4076 212.903 82.1638 213.252 81.9938 213.704C81.8238 214.156 81.7388 214.688 81.7388 215.301ZM95.555 220.655C94.5127 220.655 93.6113 220.434 92.8508 219.991C92.0948 219.544 91.511 218.922 91.0995 218.126C90.6879 217.325 90.4821 216.397 90.4821 215.341C90.4821 214.276 90.6879 213.346 91.0995 212.55C91.511 211.749 92.0948 211.127 92.8508 210.684C93.6113 210.237 94.5127 210.013 95.555 210.013C96.5973 210.013 97.4965 210.237 98.2525 210.684C99.0129 211.127 99.599 211.749 100.011 212.55C100.422 213.346 100.628 214.276 100.628 215.341C100.628 216.397 100.422 217.325 100.011 218.126C99.599 218.922 99.0129 219.544 98.2525 219.991C97.4965 220.434 96.5973 220.655 95.555 220.655ZM95.5684 218.441C96.0426 218.441 96.4385 218.307 96.7561 218.038C97.0737 217.766 97.313 217.394 97.4741 216.925C97.6396 216.455 97.7224 215.92 97.7224 215.321C97.7224 214.721 97.6396 214.187 97.4741 213.717C97.313 213.247 97.0737 212.876 96.7561 212.603C96.4385 212.33 96.0426 212.194 95.5684 212.194C95.0898 212.194 94.6872 212.33 94.3606 212.603C94.0385 212.876 93.7947 213.247 93.6292 213.717C93.4681 214.187 93.3876 214.721 93.3876 215.321C93.3876 215.92 93.4681 216.455 93.6292 216.925C93.7947 217.394 94.0385 217.766 94.3606 218.038C94.6872 218.307 95.0898 218.441 95.5684 218.441ZM109.66 214.16V216.408H104.278V214.16H109.66ZM105.218 210.147V220.454H102.487V210.147H105.218ZM111.451 210.147V220.454H108.74V210.147H111.451ZM120.842 214.16V216.408H115.461V214.16H120.842ZM116.4 210.147V220.454H113.669V210.147H116.4ZM122.634 210.147V220.454H119.923V210.147H122.634ZM126.643 213.315H129.723C131.087 213.315 132.152 213.641 132.917 214.294C133.682 214.943 134.064 215.811 134.064 216.898C134.064 217.605 133.892 218.226 133.548 218.763C133.203 219.295 132.707 219.712 132.058 220.011C131.409 220.306 130.631 220.454 129.723 220.454H124.851V210.147H127.582V218.206H129.723C130.202 218.206 130.595 218.085 130.904 217.844C131.213 217.602 131.369 217.294 131.374 216.918C131.369 216.52 131.213 216.195 130.904 215.945C130.595 215.69 130.202 215.562 129.723 215.562H126.643V213.315ZM135.172 220.454V210.147H138.03V220.454H135.172ZM143.046 216.683L146.757 210.147H149.575V220.454H146.851V213.898L143.153 220.454H140.315V210.147H143.046V216.683ZM146.267 206.551H148.26C148.255 207.365 147.953 208.02 147.354 208.517C146.759 209.013 145.954 209.262 144.938 209.262C143.918 209.262 143.111 209.013 142.516 208.517C141.921 208.02 141.623 207.365 141.623 206.551H143.603C143.598 206.859 143.697 207.137 143.898 207.383C144.104 207.629 144.451 207.752 144.938 207.752C145.412 207.752 145.752 207.631 145.958 207.389C146.164 207.148 146.267 206.868 146.267 206.551ZM156.24 220.454V210.147H159.098V214.147H159.903L162.708 210.147H166.063L162.42 215.26L166.104 220.454H162.708L160.165 216.797H159.098V220.454H156.24ZM171.544 220.655C170.501 220.655 169.6 220.434 168.84 219.991C168.084 219.544 167.5 218.922 167.088 218.126C166.677 217.325 166.471 216.397 166.471 215.341C166.471 214.276 166.677 213.346 167.088 212.55C167.5 211.749 168.084 211.127 168.84 210.684C169.6 210.237 170.501 210.013 171.544 210.013C172.586 210.013 173.485 210.237 174.241 210.684C175.002 211.127 175.588 211.749 175.999 212.55C176.411 213.346 176.617 214.276 176.617 215.341C176.617 216.397 176.411 217.325 175.999 218.126C175.588 218.922 175.002 219.544 174.241 219.991C173.485 220.434 172.586 220.655 171.544 220.655ZM171.557 218.441C172.031 218.441 172.427 218.307 172.745 218.038C173.063 217.766 173.302 217.394 173.463 216.925C173.628 216.455 173.711 215.92 173.711 215.321C173.711 214.721 173.628 214.187 173.463 213.717C173.302 213.247 173.063 212.876 172.745 212.603C172.427 212.33 172.031 212.194 171.557 212.194C171.079 212.194 170.676 212.33 170.349 212.603C170.027 212.876 169.783 213.247 169.618 213.717C169.457 214.187 169.376 214.721 169.376 215.321C169.376 215.92 169.457 216.455 169.618 216.925C169.783 217.394 170.027 217.766 170.349 218.038C170.676 218.307 171.079 218.441 171.557 218.441ZM178.475 210.147H181.206V218.186H184.112V210.147H186.843V218.186H189.748V210.147H192.479V220.454H178.475V210.147ZM199.392 220.655C198.332 220.655 197.42 220.441 196.655 220.011C195.894 219.577 195.308 218.964 194.897 218.173C194.485 217.376 194.279 216.435 194.279 215.348C194.279 214.287 194.485 213.357 194.897 212.556C195.308 211.756 195.888 211.132 196.635 210.684C197.386 210.237 198.267 210.013 199.278 210.013C199.958 210.013 200.591 210.123 201.177 210.342C201.768 210.557 202.282 210.881 202.721 211.315C203.164 211.749 203.508 212.295 203.754 212.952C204 213.605 204.123 214.37 204.123 215.247V216.032H195.42V214.261H201.432C201.432 213.849 201.343 213.485 201.164 213.167C200.985 212.849 200.737 212.601 200.419 212.422C200.106 212.239 199.741 212.147 199.325 212.147C198.891 212.147 198.507 212.248 198.171 212.449C197.84 212.646 197.581 212.912 197.393 213.247C197.205 213.578 197.109 213.948 197.104 214.355V216.039C197.104 216.549 197.198 216.989 197.386 217.361C197.578 217.732 197.849 218.018 198.198 218.22C198.547 218.421 198.961 218.522 199.439 218.522C199.757 218.522 200.048 218.477 200.312 218.387C200.576 218.298 200.802 218.164 200.989 217.985C201.177 217.806 201.321 217.587 201.419 217.327L204.063 217.502C203.929 218.137 203.653 218.692 203.237 219.166C202.826 219.635 202.293 220.002 201.64 220.266C200.992 220.526 200.242 220.655 199.392 220.655ZM205.385 220.454L205.371 218.186H205.713C205.955 218.186 206.163 218.128 206.337 218.012C206.516 217.891 206.664 217.696 206.78 217.428C206.897 217.159 206.988 216.804 207.055 216.361C207.123 215.914 207.167 215.363 207.19 214.71L207.357 210.147H215.195V220.454H212.47V212.395H209.927L209.766 215.542C209.726 216.406 209.621 217.148 209.451 217.77C209.285 218.392 209.055 218.902 208.76 219.3C208.465 219.694 208.109 219.984 207.693 220.172C207.277 220.36 206.794 220.454 206.243 220.454H205.385ZM222.108 220.655C221.048 220.655 220.135 220.441 219.37 220.011C218.61 219.577 218.024 218.964 217.612 218.173C217.201 217.376 216.995 216.435 216.995 215.348C216.995 214.287 217.201 213.357 217.612 212.556C218.024 211.756 218.603 211.132 219.35 210.684C220.102 210.237 220.983 210.013 221.994 210.013C222.674 210.013 223.307 210.123 223.893 210.342C224.483 210.557 224.998 210.881 225.436 211.315C225.879 211.749 226.223 212.295 226.469 212.952C226.716 213.605 226.839 214.37 226.839 215.247V216.032H218.136V214.261H224.148C224.148 213.849 224.058 213.485 223.879 213.167C223.7 212.849 223.452 212.601 223.135 212.422C222.821 212.239 222.457 212.147 222.041 212.147C221.607 212.147 221.222 212.248 220.887 212.449C220.556 212.646 220.296 212.912 220.108 213.247C219.92 213.578 219.824 213.948 219.82 214.355V216.039C219.82 216.549 219.914 216.989 220.102 217.361C220.294 217.732 220.565 218.018 220.914 218.22C221.262 218.421 221.676 218.522 222.155 218.522C222.473 218.522 222.763 218.477 223.027 218.387C223.291 218.298 223.517 218.164 223.705 217.985C223.893 217.806 224.036 217.587 224.134 217.327L226.778 217.502C226.644 218.137 226.369 218.692 225.953 219.166C225.541 219.635 225.009 220.002 224.356 220.266C223.707 220.526 222.958 220.655 222.108 220.655ZM228.704 220.454V210.147H231.562V214.147H232.368L235.173 210.147H238.528L234.884 215.26L238.568 220.454H235.173L232.629 216.797H231.562V220.454H228.704Z" fill="white"/>
<defs>
<linearGradient id="paint0_linear_832_14894" x1="-10.5115" y1="254.619" x2="427.286" y2="292.087" gradientUnits="userSpaceOnUse">
<stop stop-color="#1A87DD"/>
<stop offset="1" stop-color="#45A7F5"/>
</linearGradient>
<linearGradient id="paint1_linear_832_14894" x1="-10.5115" y1="254.619" x2="427.286" y2="292.087" gradientUnits="userSpaceOnUse">
<stop stop-color="#1A87DD"/>
<stop offset="1" stop-color="#45A7F5"/>
</linearGradient>
<linearGradient id="paint2_linear_832_14894" x1="314.544" y1="113.97" x2="441.305" y2="-9.47107" gradientUnits="userSpaceOnUse">
<stop stop-color="#63C3D1"/>
<stop offset="0.33" stop-color="#4C90C1"/>
<stop offset="0.61" stop-color="#474798"/>
</linearGradient>
<linearGradient id="paint3_linear_832_14894" x1="248.711" y1="305.391" x2="390.085" y2="166.586" gradientUnits="userSpaceOnUse">
<stop stop-color="#63C3D1"/>
<stop offset="0.52" stop-color="#455DA7"/>
</linearGradient>
</defs>
</svg>
