<svg width="1128" height="1032" viewBox="0 0 1128 1032" fill="none" xmlns="http://www.w3.org/2000/svg">
<path d="M118.432 508.014C85.6087 393.9 151.508 274.783 265.623 241.96L710.742 113.928C824.857 81.1043 943.973 147.004 976.797 261.118L1068.05 578.371C1100.87 692.485 1034.97 811.602 920.859 844.425L475.739 972.457C361.625 1005.28 242.508 939.381 209.685 825.267L118.432 508.014Z" fill="url(#paint0_linear_526_187)"/>
<rect x="59" y="301.391" width="893.167" height="760.115" rx="215" transform="rotate(-16.0471 59 301.391)" fill="url(#paint1_linear_526_187)"/>
<rect opacity="0.7" x="0.380859" y="345.806" width="874.139" height="743.922" rx="215" transform="rotate(-23.2874 0.380859 345.806)" fill="url(#paint2_linear_526_187)"/>
<rect opacity="0.7" x="0.380859" y="345.805" width="874.139" height="743.922" rx="215" transform="rotate(-23.2874 0.380859 345.805)" fill="url(#paint3_linear_526_187)"/>
<path opacity="0.5" d="M65.7001 595.306C3.45752 494.186 34.9743 361.754 136.095 299.512L514.325 66.7001C615.445 4.45754 747.877 35.9743 810.12 137.095L974.673 404.432C1036.92 505.552 1005.4 637.984 904.279 700.226L526.049 933.038C424.928 995.281 292.496 963.764 230.254 862.643L65.7001 595.306Z" fill="url(#paint4_linear_526_187)"/>
<path opacity="0.5" d="M65.7001 595.305C3.45752 494.185 34.9743 361.753 136.095 299.511L514.325 66.6991C615.445 4.45656 747.877 35.9733 810.12 137.094L974.673 404.431C1036.92 505.551 1005.4 637.983 904.279 700.225L526.049 933.037C424.928 995.28 292.496 963.763 230.254 862.642L65.7001 595.305Z" fill="url(#paint5_linear_526_187)"/>
<defs>
<linearGradient id="paint0_linear_526_187" x1="593.241" y1="105.495" x2="593.241" y2="980.89" gradientUnits="userSpaceOnUse">
<stop stop-color="#5021B5"/>
<stop offset="1" stop-color="#0085FF"/>
</linearGradient>
<linearGradient id="paint1_linear_526_187" x1="505.584" y1="301.391" x2="505.584" y2="1061.51" gradientUnits="userSpaceOnUse">
<stop stop-color="#5021B5"/>
<stop offset="1" stop-color="#0085FF"/>
</linearGradient>
<linearGradient id="paint2_linear_526_187" x1="437.45" y1="345.806" x2="437.45" y2="1089.73" gradientUnits="userSpaceOnUse">
<stop stop-color="#5021B5"/>
<stop offset="1" stop-color="#0085FF"/>
</linearGradient>
<linearGradient id="paint3_linear_526_187" x1="437.45" y1="345.805" x2="437.45" y2="1089.73" gradientUnits="userSpaceOnUse">
<stop stop-color="#5021B5"/>
<stop offset="1" stop-color="#0085FF"/>
</linearGradient>
<linearGradient id="paint4_linear_526_187" x1="520.187" y1="34.7646" x2="520.187" y2="964.973" gradientUnits="userSpaceOnUse">
<stop stop-color="#5021B5"/>
<stop offset="1" stop-color="#0085FF"/>
</linearGradient>
<linearGradient id="paint5_linear_526_187" x1="520.187" y1="34.7637" x2="520.187" y2="964.972" gradientUnits="userSpaceOnUse">
<stop stop-color="#5021B5"/>
<stop offset="1" stop-color="#0085FF"/>
</linearGradient>
</defs>
</svg>
