<svg width="120" height="25" viewBox="0 0 120 25" fill="none" xmlns="http://www.w3.org/2000/svg">
<g clip-path="url(#clip0_824_14319)">
<path d="M33.4909 24.5367C32.1175 24.5433 30.753 24.3156 29.4561 23.8635C27.6955 23.1558 26.4354 21.995 25.8917 20.1178C25.7363 19.5698 25.7061 19.367 26.3793 19.3066C27.5099 19.2073 28.6362 19.0433 29.7625 18.875C29.9726 18.8055 30.2011 18.8164 30.4036 18.9057C30.6061 18.995 30.7682 19.1563 30.8586 19.3584C31.011 19.6115 31.2172 19.8281 31.4625 19.9929C31.7078 20.1577 31.9863 20.2666 32.2783 20.312C33.2156 20.5682 34.2083 20.5351 35.1264 20.2171C35.3293 20.164 35.5106 20.049 35.6451 19.8882C35.7797 19.7273 35.8608 19.5286 35.8773 19.3195C35.8792 19.1281 35.824 18.9404 35.7187 18.7805C35.6134 18.6206 35.4627 18.4958 35.2861 18.4219C34.9234 18.2265 34.5358 18.0813 34.1339 17.9904C32.9055 17.6538 31.6771 17.3129 30.4486 16.9677C29.6172 16.7327 28.8217 16.3858 28.0838 15.9363C25.1279 14.1196 25.8917 9.56261 27.9501 8.19897C29.81 6.97774 31.8338 6.71019 33.9915 6.77061C35.5179 6.75608 37.0197 7.15576 38.337 7.92711C39.379 8.55644 40.1484 9.55212 40.4947 10.7191C40.6845 11.3319 40.6284 11.4268 39.9768 11.5261C38.7858 11.7116 37.5905 11.8627 36.4038 12.0612C36.2582 12.0977 36.1047 12.0849 35.9673 12.0248C35.8298 11.9646 35.7162 11.8606 35.6443 11.7289C34.8934 10.7234 32.766 10.3523 31.6828 10.9953C31.5565 11.0524 31.4473 11.1417 31.3662 11.2541C31.285 11.3666 31.2348 11.4983 31.2204 11.6363C31.206 11.7742 31.2279 11.9135 31.2841 12.0402C31.3402 12.167 31.4286 12.2769 31.5404 12.3589C31.8353 12.6002 32.1803 12.7727 32.5502 12.8638C33.6679 13.2134 34.7898 13.55 35.9075 13.8995C36.9989 14.2253 38.04 14.7001 39.0016 15.3106C41.7073 17.0799 41.4138 21.352 39.0922 22.9746C38.2463 23.5737 37.2923 24.0031 36.2829 24.239C35.3635 24.4244 34.4288 24.5241 33.4909 24.5367Z" fill="white"/>
<path d="M43.1098 15.535C43.1098 13.0192 43.1098 10.4991 43.1098 7.98324C43.1098 7.18059 43.1098 7.17196 43.9038 7.16333C45.1467 7.16333 46.3851 7.16333 47.628 7.16333C48.3529 7.16333 48.3702 7.18922 48.3745 7.92714C48.3745 10.8572 48.3745 13.7873 48.3745 16.7217C48.3745 18.9269 48.3745 21.1363 48.3745 23.3414C48.3745 24.0836 48.3745 24.0966 47.6323 24.1052C46.3923 24.1052 45.151 24.1052 43.9082 24.1052C43.1271 24.1052 43.1098 24.1052 43.1098 23.2939C43.1055 20.7134 43.1098 18.1242 43.1098 15.535Z" fill="white"/>
<path d="M42.4971 3.02063C42.4971 1.26861 43.8348 -8.80647e-05 45.7077 -8.80647e-05C46.1221 -0.0191827 46.5361 0.0439846 46.926 0.185768C47.3158 0.327551 47.6737 0.545143 47.9791 0.825984C48.2844 1.10683 48.531 1.44535 48.7048 1.82203C48.8786 2.19871 48.9761 2.60608 48.9916 3.02063C48.9916 4.68202 47.5373 6.04134 45.7379 6.04134C43.9384 6.04134 42.5014 4.74675 42.4971 3.02063Z" fill="white"/>
<path d="M116.867 15.3624C116.049 15.3545 115.267 15.0226 114.693 14.4395C114.118 13.8563 113.799 13.0695 113.803 12.2511C113.803 11.8464 113.883 11.4457 114.038 11.0722C114.194 10.6987 114.423 10.3599 114.711 10.0756C114.998 9.79123 115.34 9.56703 115.716 9.416C116.091 9.26497 116.493 9.19014 116.897 9.19586C117.712 9.21225 118.489 9.54205 119.067 10.1167C119.645 10.6914 119.979 11.4666 120 12.2813C119.965 13.0962 119.623 13.8676 119.041 14.4395C118.459 15.0114 117.683 15.3413 116.867 15.3624Z" fill="white"/>
<path fill-rule="evenodd" clip-rule="evenodd" d="M0.728796 22.4571C0.493311 22.9905 0.2518 23.5376 0 24.1053C0.386789 24.1053 0.764803 24.1048 1.13583 24.1042C2.58616 24.1022 3.92973 24.1003 5.2733 24.1312C5.44355 24.1413 5.61183 24.0904 5.74789 23.9876C5.88395 23.8848 5.97885 23.7368 6.01553 23.5702C6.18218 23.1691 6.3584 22.7723 6.53443 22.376C6.7504 21.8897 6.96607 21.4041 7.16341 20.912C7.21733 20.7161 7.33865 20.5455 7.506 20.4302C7.67335 20.315 7.87599 20.2625 8.07825 20.2819H16.8728C17.0747 20.261 17.2774 20.3117 17.4455 20.4254C17.6136 20.539 17.7363 20.7082 17.792 20.9033C17.9464 21.2847 18.1118 21.6618 18.277 22.0384C18.4857 22.5142 18.694 22.9892 18.8795 23.471C18.9401 23.6854 19.0772 23.8701 19.2649 23.9902C19.4526 24.1103 19.6778 24.1574 19.8979 24.1226H24.2434C24.2711 24.1226 24.2995 24.1237 24.3283 24.1249C24.5009 24.1318 24.6854 24.1392 24.8001 23.9025C24.7845 23.8624 24.7686 23.8196 24.7521 23.7752C24.7135 23.6712 24.6715 23.5582 24.6231 23.4494C22.8625 19.5196 21.1047 15.5869 19.3498 11.6513C17.9229 8.46376 16.5075 5.27763 15.1036 2.09294C14.8749 1.59236 14.672 1.22556 13.9859 1.2946C13.0217 1.35502 12.0546 1.35502 11.0903 1.2946C10.8259 1.25227 10.5552 1.3078 10.3288 1.45079C10.1024 1.59378 9.93586 1.81442 9.86047 2.07136C7.91771 6.44988 5.95056 10.8187 3.98286 15.1887C3.33252 16.633 2.68211 18.0775 2.03251 19.5224C1.60023 20.4831 1.17535 21.4455 0.728796 22.4571ZM9.50154 15.5646C9.49892 15.5706 9.4963 15.5766 9.49367 15.5826H9.49377C9.49377 15.5826 9.49376 15.5826 9.49376 15.5826H15.4877L15.4815 15.5685L12.5144 8.71261C12.5086 8.72563 12.5028 8.73864 12.497 8.75165L12.4799 8.71265C11.4427 11.0928 10.4955 13.2712 9.50154 15.5646Z" fill="white"/>
<path d="M63.9313 23.1949C63.5304 23.3071 63.1491 23.4803 62.8007 23.7084C59.5772 25.0634 56.509 24.8347 53.7386 22.6123C51.6327 20.9121 50.6747 18.5818 50.61 15.8934C50.541 12.9676 51.4731 10.4388 53.8206 8.59619C56.604 6.40401 59.6678 6.2314 62.8827 7.60367C63.228 7.7547 63.5084 8.0352 63.9055 8.06541C64.1903 7.16782 64.1903 7.16782 65.1526 7.16351C66.2228 7.16351 67.3102 7.16351 68.3632 7.16351C69.2564 7.16351 69.2651 7.16351 69.2651 8.07835C69.2651 12.9115 69.2651 17.7418 69.2651 22.5691C69.2651 22.9144 69.2651 23.2596 69.2651 23.6048C69.2651 23.95 69.1183 24.1054 68.7688 24.1011C67.3879 24.1011 66.007 24.0666 64.6304 24.1011C63.8968 24.1658 64.1903 23.484 63.9313 23.1949ZM64.0177 15.6258C64.0217 14.5729 63.6072 13.5615 62.8655 12.8141C62.1238 12.0668 61.1156 11.6446 60.0627 11.6406C59.0097 11.6366 57.9984 12.0511 57.251 12.7928C56.5036 13.5345 56.0815 14.5427 56.0775 15.5956C56.0775 17.9216 57.7087 19.6347 59.9613 19.6563C60.4967 19.6748 61.0303 19.5834 61.5291 19.3877C62.0279 19.192 62.4813 18.8963 62.8614 18.5186C63.2415 18.141 63.5402 17.6894 63.739 17.1919C63.9379 16.6944 64.0327 16.1614 64.0177 15.6258Z" fill="white"/>
<path d="M92.4382 -2.34228e-06H107.973C109.825 0.0258895 110.778 0.970941 110.783 2.80495C110.783 8.98158 110.783 15.1553 110.783 21.3262C110.783 21.5679 110.783 21.8095 110.783 22.0512C110.785 22.6278 110.58 23.186 110.207 23.6252C109.833 24.0644 109.315 24.3556 108.746 24.4462C108.373 24.5115 107.994 24.5404 107.615 24.5325H77.2008C76.8219 24.5393 76.4432 24.509 76.0702 24.4419C75.5378 24.3542 75.0513 24.0874 74.6911 23.6857C74.3309 23.2839 74.1187 22.7712 74.0895 22.2324C74.0679 21.9606 74.0679 21.6844 74.0679 21.4082V2.9905C74.0679 2.81789 74.0679 2.64528 74.0679 2.47267C74.0635 1.84272 74.3009 1.23508 74.7313 0.775021C75.1616 0.314964 75.7521 0.0375588 76.3809 -2.34228e-06C76.6873 -0.0302095 77.0023 -2.34228e-06 77.313 -2.34228e-06H92.4382ZM76.6226 13.0322C76.6226 13.4637 76.6226 13.8608 76.6226 14.275C76.6571 14.9223 76.3335 15.7595 76.7564 16.1651C77.2526 16.6441 78.1286 16.286 78.8407 16.3507C79.3369 16.3982 79.5052 16.1781 79.4923 15.6948C79.4664 14.8705 79.4923 14.042 79.4923 13.2135C79.4923 12.3849 79.4923 12.4022 80.2777 12.3892C80.9638 12.3892 81.6542 12.3892 82.3447 12.3892C83.0714 12.4076 83.7946 12.2815 84.4721 12.0181C85.9782 11.3795 86.9664 10.292 87.0915 8.60903C87.1581 7.89863 87.019 7.18407 86.6908 6.55054C86.3625 5.91701 85.859 5.39125 85.2403 5.03596C84.4851 4.54845 83.6015 4.29752 82.7029 4.3153C81.2184 4.3153 79.7382 4.3153 78.2538 4.3153C76.3464 4.34119 76.6485 3.99597 76.6269 5.93786C76.6269 6.72324 76.6269 6.73619 77.4296 6.74482C78.8752 6.74482 80.3208 6.74482 81.7708 6.74482C81.9406 6.71821 82.1143 6.72791 82.2801 6.77329C82.446 6.81866 82.6004 6.89867 82.7331 7.00805C83.074 7.34896 83.4365 7.66829 83.786 8.00057C83.9068 8.11709 84.0881 8.2897 83.9241 8.4321C83.2509 9.01898 82.8366 9.95541 81.6931 9.89931C80.351 9.83458 79.0046 9.89931 77.6626 9.89931C76.4845 9.89931 76.6269 9.89931 76.6226 10.9868C76.6183 11.6513 76.6226 12.3504 76.6226 13.0365V13.0322ZM97.3361 11.8067C97.3361 10.5121 97.3361 9.25201 97.3361 7.979C97.3361 7.75028 97.4051 7.41369 97.0815 7.3878C96.3306 7.33602 95.4805 7.11593 94.8548 7.48274C94.6944 7.58119 94.51 7.63331 94.3218 7.63331C94.1337 7.63331 93.9492 7.58119 93.7889 7.48274C93.1639 7.22862 92.4919 7.11066 91.8178 7.1367C91.1436 7.16275 90.4827 7.3322 89.8792 7.63377C86.9448 9.17002 86.6039 13.7097 89.2664 15.6818C90.6991 16.7477 92.2526 16.7952 93.8752 16.1781C94.0909 16.0918 94.3801 15.8113 94.5225 15.9709C95.1611 16.6743 95.9552 16.1953 96.6586 16.3291C97.2239 16.4327 97.3576 16.122 97.349 15.6128C97.3317 14.3613 97.349 13.084 97.349 11.811L97.3361 11.8067ZM103.196 12.6438C102.973 12.3081 102.807 11.9377 102.704 11.5478C102.273 10.3567 101.841 9.15707 101.367 7.96605C101.259 7.67692 101.181 7.35759 100.771 7.35759H98.3458C98.5228 7.83659 98.635 8.16024 98.7774 8.47094C99.7483 10.8659 100.728 13.2609 101.695 15.6559C102.014 16.4586 101.863 16.9505 101.138 17.382C100.909 17.5288 100.633 17.5935 100.391 17.723C100.055 17.8956 99.5584 17.6366 99.3427 18.0034C99.1269 18.3703 99.2866 18.8147 99.265 19.2247C99.265 19.3282 99.265 19.4318 99.265 19.5354C99.2909 20.2819 99.3125 20.2992 100.02 20.2604C102.001 20.1525 103.408 19.2247 104.167 17.3648C105.445 14.2405 106.725 11.1162 108.008 7.99194C108.085 7.8107 108.224 7.62083 107.965 7.34033C107.391 7.34033 106.739 7.37054 106.092 7.34033C105.583 7.31012 105.363 7.53883 105.199 7.98763C104.724 9.28222 104.215 10.5768 103.701 11.8412C103.567 12.1174 103.567 12.454 103.209 12.6482L103.196 12.6438Z" fill="white"/>
<path d="M92.4772 9.70951C92.7611 9.70066 93.0438 9.7497 93.3082 9.85364C93.5726 9.95758 93.813 10.1142 94.0148 10.3141C94.2167 10.5139 94.3758 10.7528 94.4824 11.0161C94.589 11.2794 94.6408 11.5616 94.6348 11.8456C94.665 12.1456 94.6318 12.4486 94.5377 12.735C94.4435 13.0215 94.2903 13.285 94.088 13.5086C93.8858 13.7322 93.6389 13.9109 93.3633 14.0332C93.0877 14.1555 92.7895 14.2187 92.488 14.2187C92.1865 14.2187 91.8883 14.1555 91.6127 14.0332C91.3371 13.9109 91.0902 13.7322 90.8879 13.5086C90.6856 13.285 90.5325 13.0215 90.4383 12.735C90.3441 12.4486 90.311 12.1456 90.3411 11.8456C90.3394 11.5646 90.3935 11.2861 90.5002 11.0261C90.6069 10.7662 90.7642 10.53 90.9629 10.3313C91.1616 10.1326 91.3978 9.97535 91.6577 9.86861C91.9177 9.76187 92.1962 9.70779 92.4772 9.70951Z" fill="white"/>
</g>
<defs>
<clipPath id="clip0_824_14319">
<rect width="120" height="24.5498" fill="white"/>
</clipPath>
</defs>
</svg>
