<svg width="1178" height="1096" viewBox="0 0 1178 1096" fill="none" xmlns="http://www.w3.org/2000/svg">
<g opacity="0.1">
<path d="M413.251 267.875C413.526 268.218 427.459 260.428 452.923 247.284C474.398 236.186 497.053 227.541 520.461 221.511C552.618 213.343 584.671 208.641 674.105 219.177C741.712 227.139 758.013 240.798 761.136 233.179C765.083 223.604 736.289 196.767 705.06 186.472C667.708 173.789 627.977 169.695 588.824 174.495C534.566 181.118 503.028 203.288 494.791 207.509C442.799 233.557 412.702 267.36 413.251 267.875Z" fill="url(#paint0_linear_537_187)"/>
<path d="M382.833 484.939C491.176 452.371 457.441 463.971 538.81 435.143C571.721 423.509 581.124 421.004 611.942 410.606C680.922 387.441 695.198 381.264 743.519 355.422C766.821 342.964 777.837 333.698 784.426 318.049C792.971 297.801 787.858 277.76 764.556 226.9C707.038 101.741 719.633 128.818 671.896 45.2529C665.616 34.2024 656.968 19.1023 637.166 8.42933C618.085 -1.86617 592.038 -2.75845 572.888 8.42933C557.445 17.455 550.959 32.2462 548.35 36.4674C464.682 171.922 394.158 298.007 326.379 433.702C321.438 443.62 308.911 468.569 318.212 479.242C326.036 488.097 365.399 490.121 382.833 484.939Z" fill="url(#paint1_linear_537_187)"/>
<path d="M6.90993 1045.74C16.4504 1065.44 34.3646 1074.46 43.6992 1079.03C63.947 1088.88 101.045 1103.77 167.657 1088.36C215.943 1077.21 246.898 1065.44 299.096 1038.74C322.192 1026.9 364.301 994.123 418.73 958.123C477.277 919.48 484.93 914.23 527.519 893.261C566.402 874.112 595.538 859.458 630.886 858.943C712.014 857.399 763.457 918.725 772.723 909.185C781.2 900.434 734.355 845.353 685.109 784.747C636.308 724.724 583.423 675.237 495.843 649.807C444.385 633.337 390.265 626.804 336.366 630.554C290.379 633.986 244.05 640.472 200.397 680.179C188.831 690.714 174.864 699.671 137.457 752.247C65.3197 853.624 42.0519 902.424 38.6201 909.048C24.8927 934.889 6.53243 964.746 1.65922 1005.41C-0.228283 1020.96 1.14445 1034.03 6.90993 1045.74Z" fill="url(#paint2_linear_537_187)"/>
<path opacity="0.37" d="M211.755 670.46C211.755 670.46 256.06 668.161 305.238 662.635C331.87 659.684 411.9 650.693 473.398 690.673C558.782 746.098 555.762 867.893 609.711 860.995C623.34 858.979 637.15 858.461 650.893 859.451C659.438 860.275 684.628 862.643 722.172 883.268C751.994 899.638 769.84 917.929 777.527 906.57C793.794 882.547 747.087 863.706 710.572 818.029C686.069 787.382 635.278 711.161 536.338 667.028C488.704 645.819 445.154 646.437 437.192 645.03C395.8 637.88 353.456 638.276 312.205 646.197C258.703 657.076 211.755 670.46 211.755 670.46Z" fill="#493F92"/>
<path d="M210.463 669.023C210.463 669.023 249.415 658.145 289.396 648.432C295.195 646.991 375.706 633.092 454.57 647.128C568.918 667.445 607.904 709.691 636.834 736.356C679.972 776.303 682.272 792.878 776.373 914.262C820.266 970.888 854.584 1010.77 886.98 1033.83C942.713 1073.4 992.681 1084.76 1009.84 1088.12C1039.9 1093.95 1070.73 1094.54 1100.99 1089.87C1129.3 1085.48 1147.32 1082.25 1162.32 1064.03C1180.85 1041.51 1177.07 1011.86 1176.32 1006.2C1173.09 980.737 1161.25 964.092 1143.03 935.231C1122.78 903.109 1104.9 869.717 1089.15 841.919C1045.77 765.252 1020.51 728.429 945.013 586.934C909.802 520.803 879.808 490.122 849.505 475.64C806.744 455.255 778.054 466.923 746.55 471.521C706.432 477.356 673.967 493.451 634.535 505.84C626.642 508.276 568.815 526.431 442.078 566C368.396 588.787 323.199 600.902 265.132 632.509C246.147 643.499 227.887 655.695 210.463 669.023V669.023Z" fill="url(#paint3_linear_537_187)"/>
<path d="M413.244 267.869C413.244 267.869 432.325 253.661 472.203 229.501C475.634 227.476 526.494 196.933 570.353 187.427C667.645 166.356 765.247 228.334 765.247 228.334C765.247 228.334 750.181 195.698 737.964 169.067C730.585 153.006 728.08 146.005 700.213 94.287C661.914 23.0765 651.996 14.291 634.597 6.32917C625.438 2.15825 615.49 0 605.426 0C595.362 0 585.415 2.15825 576.256 6.32917C555.013 16.8306 544.82 37.3872 540.256 44.903C528.279 64.533 517.606 85.5359 505.937 105.372C459.093 184.029 413.244 267.869 413.244 267.869Z" fill="url(#paint4_linear_537_187)"/>
</g>
<defs>
<linearGradient id="paint0_linear_537_187" x1="413.251" y1="220.241" x2="761.513" y2="220.241" gradientUnits="userSpaceOnUse">
<stop stop-color="#3454A2"/>
<stop offset="0.34" stop-color="#464898"/>
<stop offset="0.84" stop-color="#464898"/>
</linearGradient>
<linearGradient id="paint1_linear_537_187" x1="341.308" y1="502.27" x2="738.542" y2="105.035" gradientUnits="userSpaceOnUse">
<stop stop-color="#63C3D1"/>
<stop offset="0.33" stop-color="#4C90C1"/>
<stop offset="0.61" stop-color="#474798"/>
</linearGradient>
<linearGradient id="paint2_linear_537_187" x1="118.41" y1="1161.9" x2="592.895" y2="687.386" gradientUnits="userSpaceOnUse">
<stop stop-color="#63C3D1"/>
<stop offset="0.52" stop-color="#455DA7"/>
</linearGradient>
<linearGradient id="paint3_linear_537_187" x1="421.109" y1="458.378" x2="1094.68" y2="1131.98" gradientUnits="userSpaceOnUse">
<stop stop-color="#63C3D1"/>
<stop offset="0.33" stop-color="#4C90C1"/>
<stop offset="0.84" stop-color="#474798"/>
</linearGradient>
<linearGradient id="paint4_linear_537_187" x1="413.244" y1="133.925" x2="765.247" y2="133.925" gradientUnits="userSpaceOnUse">
<stop stop-color="#63C3D1"/>
<stop offset="0.33" stop-color="#4C90C1"/>
<stop offset="0.84" stop-color="#474798"/>
</linearGradient>
</defs>
</svg>
