<svg width="54" height="58" viewBox="0 0 54 58" fill="none" xmlns="http://www.w3.org/2000/svg">
<g clip-path="url(#clip0_832_15032)">
<path d="M5.12066 32.3534L23.7413 54.6983C25.3707 56.5603 27.2715 57.4914 29.4439 57.4914C31.3836 57.4914 33.0517 56.9095 34.4482 55.7457L50.625 42.1293C52.1767 40.7328 53.0689 38.9871 53.3017 36.8922C53.5345 34.9526 52.9526 33.0517 51.556 31.1897L32.9353 8.84483C30.9181 6.20689 28.2801 4.53879 25.0215 3.84052L8.84479 0.116378C7.29307 -0.34914 5.81893 -1.78814e-06 4.42238 1.16379L2.44393 2.90948C1.28014 3.76293 0.698242 5.15948 0.698242 7.09914L1.62928 23.7414C2.01721 27.0776 3.181 29.9483 5.12066 32.3534ZM7.91376 4.88793L24.3232 8.84483C26.0301 9.23276 27.737 10.2802 29.4439 11.9871L48.0646 34.3319C48.6853 34.9526 48.8793 35.6509 48.6465 36.4267C48.6465 36.8922 48.2974 37.5517 47.5991 38.4052L31.4224 52.0216C30.8793 52.4871 30.2198 52.7004 29.4439 52.6616C28.6681 52.6228 28.0862 52.3319 27.6982 51.7888L9.07755 29.444C7.60341 27.5819 6.86635 25.681 6.86635 23.7414L5.70255 6.63362L7.91376 4.88793ZM14.5474 13.0345C14.5474 13.7328 14.3146 14.3147 13.8491 14.7802C13.3836 15.2457 12.8017 15.4784 12.1034 15.4784C11.4051 15.4784 10.8232 15.2457 10.3577 14.7802C9.89221 14.3147 9.65945 13.7328 9.65945 13.0345C9.65945 12.3362 9.89221 11.7543 10.3577 11.2888C10.8232 10.8233 11.4051 10.5905 12.1034 10.5905C12.8017 10.5905 13.3836 10.8233 13.8491 11.2888C14.3146 11.7543 14.5474 12.3362 14.5474 13.0345ZM15.8276 30.375L38.6379 37.5905H39.4526C40.5388 37.5905 41.3534 37.0086 41.8965 35.8448C42.1293 35.2241 42.0905 34.6034 41.7801 33.9828C41.4698 33.3621 41.0043 32.9353 40.3836 32.7026L17.5732 25.4871C16.9526 25.1767 16.3125 25.1767 15.653 25.4871C14.9935 25.7974 14.5474 26.2629 14.3146 26.8836C13.8491 28.6681 14.3534 29.8319 15.8276 30.375ZM34.4482 41.5474C34.4482 42.556 34.0991 43.4289 33.4008 44.1659C32.7026 44.903 31.8103 45.2716 30.7241 45.2716C29.6379 45.2716 28.7457 44.903 28.0474 44.1659C27.3491 43.4289 27 42.556 27 41.5474C27 40.5388 27.3685 39.6659 28.1056 38.9289C28.8426 38.1918 29.7155 37.8233 30.7241 37.8233C31.7327 37.8233 32.6056 38.1918 33.3426 38.9289C34.0797 39.6659 34.4482 40.5388 34.4482 41.5474ZM27 21.7629C27 22.7715 26.6314 23.6444 25.8944 24.3815C25.1573 25.1185 24.2845 25.4871 23.2758 25.4871C22.2672 25.4871 21.3944 25.1185 20.6573 24.3815C19.9202 23.6444 19.5517 22.7715 19.5517 21.7629C19.5517 20.7543 19.9008 19.8815 20.5991 19.1444C21.2974 18.4073 22.1896 18.0388 23.2758 18.0388C24.362 18.0388 25.2543 18.4073 25.9526 19.1444C26.6508 19.8815 27 20.7543 27 21.7629Z" fill="#4B4D9B"/>
</g>
<defs>
<clipPath id="clip0_832_15032">
<rect width="54" height="57.7241" fill="white"/>
</clipPath>
</defs>
</svg>
