<svg width="54" height="54" viewBox="0 0 54 54" fill="none" xmlns="http://www.w3.org/2000/svg">
<path d="M53.4601 22.626C53.0821 21.438 52.0561 20.412 50.5441 20.412H47.0881C46.7641 19.386 46.3321 18.36 45.8461 17.388L48.4921 14.742C49.0321 14.202 49.3021 13.5 49.3021 12.798C49.3021 12.096 49.0321 11.394 48.4921 10.854L43.0921 5.45399C42.0121 4.37399 40.2841 4.37399 39.1501 5.45399L36.4501 8.15399C35.5861 7.72199 34.6141 7.34398 33.4261 6.96598V3.40199C33.4261 1.72799 32.0761 0.377991 30.4021 0.377991H23.4901C21.8161 0.377991 20.4661 1.72799 20.4661 3.40199V6.96598C19.4401 7.28998 18.4681 7.72199 17.496 8.20799L14.7961 5.45399C13.7161 4.37399 11.9881 4.37399 10.9081 5.45399L5.50805 10.854C4.96805 11.394 4.69805 12.096 4.69805 12.798C4.69805 13.5 4.96805 14.202 5.50805 14.742L8.10005 17.334C7.61405 18.306 7.18205 19.332 6.85805 20.358H3.40206C1.72806 20.358 0.378052 21.708 0.378052 23.382V30.402C0.378052 32.076 1.72806 33.426 3.40206 33.426H6.91206C7.23606 34.452 7.66806 35.478 8.15406 36.504L5.50805 39.15C4.96805 39.69 4.69805 40.392 4.69805 41.094C4.69805 41.904 5.02206 42.606 5.56206 43.092L10.9081 48.438C11.9341 49.464 13.6621 49.464 14.7421 48.492L17.3881 45.846C18.3061 46.332 19.3861 46.818 20.5201 47.142V50.49C20.5201 52.164 21.8701 53.514 23.5441 53.514H30.5641C32.2381 53.514 33.5881 52.164 33.5881 50.49V47.142C34.8301 46.71 35.8561 46.332 36.7201 45.9L39.3121 48.492C39.8521 49.032 40.5541 49.302 41.2561 49.302C41.9581 49.302 42.6601 49.032 43.2001 48.492L48.6001 43.092C49.1401 42.552 49.4101 41.85 49.4101 41.148C49.4101 40.446 49.1401 39.744 48.6001 39.204L45.9541 36.558C46.4401 35.64 46.8721 34.614 47.1961 33.48H50.6521C52.3261 33.48 53.6761 32.13 53.6761 30.456V22.896L53.4601 22.626ZM51.0301 30.456C51.0301 30.672 50.8681 30.78 50.7061 30.78H45.6841L44.9281 31.536L44.8201 31.914C44.4961 33.48 43.7941 34.83 43.1461 36.072L42.9841 36.396V36.72C42.9841 37.152 43.1461 37.53 43.416 37.854L46.6561 41.094C46.7101 41.148 46.7101 41.148 46.6561 41.202L41.2561 46.602C41.2561 46.602 41.2021 46.602 41.1481 46.602L37.4761 42.93H36.9361C36.666 42.93 36.3961 42.984 36.0721 43.146C34.9921 43.74 33.6961 44.28 31.9681 44.82C31.5901 44.928 31.3201 45.144 31.2121 45.252L30.8341 45.63V50.49C30.8341 50.706 30.6721 50.814 30.5101 50.814H23.4901C23.2741 50.814 23.1661 50.652 23.1661 50.49V45.63L22.4101 44.874L22.0321 44.766C20.7361 44.496 19.5481 43.956 18.4681 43.416V43.308L17.6581 42.984C17.1181 42.768 16.5241 42.876 16.1461 43.308L12.9061 46.548C12.8521 46.548 12.7981 46.602 12.7441 46.602L7.29005 41.148C7.29005 41.148 7.29006 41.094 7.34406 41.094L11.0701 37.368V36.828C11.0701 36.504 10.9621 36.234 10.8001 35.964C10.0981 34.614 9.55805 33.264 9.12605 31.806L9.01805 31.482L8.31605 30.78H3.29406C3.07806 30.78 2.97005 30.618 2.97005 30.456V23.436C2.97005 23.22 3.13206 23.112 3.29406 23.112H8.31605L9.01805 22.41L9.12605 22.032C9.45005 20.898 9.88205 19.656 10.4761 18.522H10.6381L10.9621 17.712C11.1781 17.172 11.0701 16.578 10.6381 16.2L7.29005 12.852C7.29005 12.852 7.29005 12.798 7.29005 12.744L12.6901 7.34399C12.7441 7.28999 12.7441 7.28999 12.7981 7.34399L16.5781 11.178H17.1181C17.4421 11.178 17.7661 11.07 17.9821 10.908C18.9001 10.368 20.3041 9.71999 21.9241 9.28799L22.3021 9.17998L23.0041 8.47799V3.40199C23.0041 3.18599 23.1661 3.07799 23.3281 3.07799H30.2401C30.4561 3.07799 30.5641 3.23999 30.5641 3.40199V8.47799L31.2661 9.17998L31.5901 9.28799C33.3721 9.82799 34.6681 10.368 35.7481 10.962L36.0721 11.124H36.4501C36.8821 11.124 37.3141 10.962 37.5841 10.692L40.9321 7.34399C40.9861 7.28999 40.9861 7.28999 41.0401 7.34399L46.4401 12.744C46.4401 12.744 46.4401 12.798 46.4401 12.852L42.7141 16.578V17.118C42.7141 17.388 42.7681 17.658 42.9301 17.928L42.9841 17.982C43.5241 18.9 44.2261 20.304 44.6581 22.032L44.7661 22.41L45.4681 23.112H50.4901C50.6521 23.112 50.8141 23.382 50.8681 23.544L50.9221 23.976L50.9761 24.03V30.456H51.0301Z" fill="#4B4D9B"/>
<path d="M27.7561 16.2H27.0541C24.0841 16.2 21.3841 17.334 19.3321 19.332C17.1181 21.492 15.9301 24.57 16.1461 27.702C16.5241 33.048 20.9521 37.53 26.2981 37.854C26.5681 37.854 26.7841 37.854 27.0541 37.854C29.9161 37.854 32.6701 36.72 34.6681 34.668C36.8281 32.4 38.0161 29.376 37.8541 26.298C37.5841 21.006 33.1021 16.524 27.7561 16.2ZM32.7781 32.832C31.1041 34.506 28.8361 35.37 26.5141 35.208C22.5181 34.938 19.1161 31.59 18.8461 27.54C18.6841 25.164 19.5481 22.896 21.2221 21.276C22.7881 19.71 24.7861 18.9 27.0541 18.9H27.6481C31.6441 19.17 34.9921 22.518 35.2621 26.514C35.3161 28.782 34.4521 31.104 32.7781 32.832Z" fill="#4B4D9B"/>
</svg>
