<svg width="54" height="54" viewBox="0 0 54 54" fill="none" xmlns="http://www.w3.org/2000/svg">
<path d="M52.3125 33.75H35.4375C34.506 33.75 33.75 34.506 33.75 35.4375C33.75 36.369 34.506 37.125 35.4375 37.125H48.3216C44.5264 45.0984 36.4196 50.625 27 50.625C15.1014 50.625 5.28521 41.8196 3.64332 30.375H0.232853C1.89679 43.6894 13.2334 54 27 54C37.1722 54 46.0215 48.3705 50.625 40.0612V52.3125C50.625 53.244 51.381 54 52.3125 54C53.244 54 54 53.244 54 52.3125V35.4375C54 33.6454 52.3125 33.75 52.3125 33.75ZM1.6875 20.25H18.5625C19.494 20.25 20.25 19.494 20.25 18.5625C20.25 17.631 19.494 16.875 18.5625 16.875H5.66832C9.46015 8.8965 17.5787 3.375 27 3.375C38.8986 3.375 48.7148 12.1804 50.3567 23.625H53.7671C52.1033 10.3089 40.7666 0 27 0C16.8277 0 7.9785 5.6295 3.375 13.9388V1.6875C3.375 0.756 2.619 0 1.6875 0C0.756 0 0 0.756 0 1.6875V18.5625C0 20.1977 1.6875 20.25 1.6875 20.25Z" fill="#4B4D9B"/>
</svg>
