<svg width="54" height="54" viewBox="0 0 54 54" fill="none" xmlns="http://www.w3.org/2000/svg">
<path fill-rule="evenodd" clip-rule="evenodd" d="M0 47.6719C0 46.9729 0.643756 46.4062 1.43787 46.4062H52.5621C53.3562 46.4062 54 46.9729 54 47.6719C54 48.3709 53.3562 48.9375 52.5621 48.9375H1.43787C0.643756 48.9375 0 48.3709 0 47.6719Z" fill="#4B4D9B"/>
<path fill-rule="evenodd" clip-rule="evenodd" d="M10.5852 18.0804V47.4911C10.5852 48.2899 9.91556 48.9375 9.08949 48.9375C8.26341 48.9375 7.59375 48.2899 7.59375 47.4911V17.1482C7.59375 16.6282 7.80736 16.1295 8.18761 15.7618C8.56785 15.3941 9.08357 15.1875 9.62131 15.1875H16.5349C17.0727 15.1875 17.5884 15.3941 17.9686 15.7618C18.3489 16.1295 18.5625 16.6282 18.5625 17.1482V47.4911C18.5625 48.2899 17.8928 48.9375 17.0668 48.9375C16.2407 48.9375 15.571 48.2899 15.571 47.4911V18.0804H10.5852Z" fill="#4B4D9B"/>
<path fill-rule="evenodd" clip-rule="evenodd" d="M25.7727 7.9448V47.4963C25.7727 48.2923 25.1031 48.9375 24.277 48.9375C23.4509 48.9375 22.7812 48.2923 22.7812 47.4963V7.18687C22.7812 6.71655 22.9278 6.23527 23.2362 5.83908C23.5449 5.44243 24.0856 5.0625 24.8088 5.0625H31.7224C32.4456 5.0625 32.9864 5.44243 33.2951 5.83908C33.6035 6.23527 33.75 6.71655 33.75 7.18687V47.4963C33.75 48.2923 33.0803 48.9375 32.2543 48.9375C31.4282 48.9375 30.7585 48.2923 30.7585 47.4963V7.9448H25.7727Z" fill="#4B4D9B"/>
<path fill-rule="evenodd" clip-rule="evenodd" d="M40.9602 25.6875V47.4844C40.9602 48.2869 40.2906 48.9375 39.4645 48.9375C38.6384 48.9375 37.9688 48.2869 37.9688 47.4844V24.6219C37.9688 23.9549 38.3432 23.4619 38.7228 23.1854C39.1019 22.9091 39.5571 22.7812 39.9963 22.7812H46.9099C47.3491 22.7812 47.8043 22.9091 48.1834 23.1854C48.563 23.4619 48.9375 23.9549 48.9375 24.6219V47.4844C48.9375 48.2869 48.2678 48.9375 47.4418 48.9375C46.6157 48.9375 45.946 48.2869 45.946 47.4844V25.6875H40.9602Z" fill="#4B4D9B"/>
</svg>
