<svg width="24" height="24" viewBox="0 0 24 24" fill="none" xmlns="http://www.w3.org/2000/svg">
<path d="M16.0658 8.51151L10.7208 13.4798C10.533 13.6544 10.4116 13.8888 10.3773 14.1428L10.1954 15.4919C10.1712 15.6719 9.91789 15.69 9.86824 15.5154L9.16802 13.0552C9.08811 12.7744 9.20461 12.4747 9.45315 12.3216L15.9296 8.3325C16.0458 8.261 16.1658 8.41855 16.0658 8.51151ZM19 0C21.7614 0 24 2.23858 24 5V19C24 21.7614 21.7614 24 19 24H5C2.23858 24 0 21.7614 0 19V5C0 2.23858 2.23858 0 5 0H19ZM18.6591 5.76602L5.05928 11.0124C4.724 11.1418 4.72658 11.6171 5.06323 11.7428L8.37691 12.9798L9.65966 17.1047C9.74184 17.3689 10.0651 17.4663 10.2795 17.2914L12.1266 15.7856C12.3203 15.6277 12.5958 15.62 12.798 15.7668L16.1299 18.1858C16.3592 18.3524 16.6841 18.2268 16.7418 17.9492L19.1821 6.20979C19.2451 5.90706 18.9477 5.65466 18.6591 5.76602Z" fill="white"/>
</svg>
